<svg width="359" height="360" viewBox="0 0 359 360" fill="none" xmlns="http://www.w3.org/2000/svg">
<path d="M100.867 265.194C99.49 265.194 99.4454 284.15 99.415 285.488C99.1316 297.502 97.9634 309.876 101.363 321.533C101.838 323.163 102.395 324.813 103.45 326.145C105.29 328.469 108.633 329.477 111.451 328.558C114.271 327.639 116.377 324.857 116.494 321.893C116.543 320.699 116.32 319.401 116.95 318.385C117.33 317.773 117.964 317.371 118.596 317.028C119.875 316.338 121.276 315.803 122.728 315.779C124.712 315.745 127.21 317.229 128.208 318.992C128.621 319.721 128.714 320.583 128.799 321.418C129.376 327.115 128.295 339.647 137.908 337.264C141.76 336.308 143.888 333.8 143.809 329.803C143.763 327.443 143.437 324.853 144.801 322.926C146.403 320.662 150.221 320.504 152.003 322.63C153.213 324.074 153.426 326.121 154.475 327.686C155.096 328.615 155.987 329.332 156.918 329.951C159.777 331.848 164.518 332.19 167.288 329.74C168.788 328.412 169.414 326.362 169.746 324.384C170.078 322.408 170.199 320.363 170.977 318.516C172.295 315.386 175.615 313.182 179.01 313.291C186.809 313.546 187.942 322.744 187.481 328.718C187.187 332.506 186.456 336.272 186.553 340.068C186.669 344.615 188.24 349.107 191.951 351.946C196.743 355.614 203.078 353.262 205.659 348.134C207.342 344.791 207.514 340.892 207.252 337.158C206.993 333.425 206.335 329.706 206.485 325.967C206.629 322.397 207.755 318.514 210.775 316.607C212.658 315.419 215.039 315.186 217.217 315.648C221.651 316.585 225.309 320.462 225.988 324.942C226.33 327.2 226.006 329.643 227.091 331.652C228.373 334.026 231.472 335.087 234.08 334.393C245.549 331.338 237.4 314.19 243.549 307.086C245.016 305.389 247.826 304.33 249.424 305.906C251.592 308.041 249.023 312.086 250.622 314.676C251.922 316.783 255.34 316.474 257.062 314.696C258.785 312.919 259.259 310.307 259.617 307.857C261.138 297.491 257.957 274.653 258.297 264.182C258.287 264.443 115.696 265.194 100.867 265.194Z" fill="#86E3D7"/>
<path d="M269.25 269.75C318.818 220.182 318.818 139.818 269.25 90.25C219.682 40.6825 139.318 40.6825 89.75 90.25C40.1824 139.818 40.1824 220.182 89.75 269.75C139.318 319.318 219.682 319.318 269.25 269.75Z" fill="#1E91D6"/>
<path d="M232.896 169.726C246.572 169.726 259.174 169.921 272.779 171.694C274.124 171.87 275.745 172.279 276.122 173.648C276.324 174.381 276.075 175.162 275.79 175.865C274.705 178.527 273.032 180.922 270.939 182.807C276.239 186.403 281.378 190.265 286.328 194.373C284.155 197.1 281.983 199.827 279.811 202.556C279.296 203.202 278.768 203.86 278.078 204.285C277.225 204.812 276.209 204.937 275.225 205.051C269.85 205.668 264.475 206.29 259.097 206.901C254.066 207.474 249.116 207.344 253.56 213.693C244.59 217.143 234.813 217.234 225.261 217.287C198.144 217.435 171.03 217.58 143.913 217.728C140.842 217.744 143.71 214.471 143.285 213.598C142.733 212.464 137.922 214.706 136.898 215.046C135.829 215.4 134.717 215.781 133.92 216.574C133.108 217.38 132.705 218.536 131.867 219.312C130.672 220.417 128.887 220.52 127.259 220.54C111.31 220.743 95.4189 218.801 79.587 216.862C75.056 216.307 69.3812 213.612 67.879 208.822C66.4274 204.19 68.6564 198.635 69.7072 194.142C69.8428 193.565 69.9845 192.972 70.3165 192.492C70.7113 191.921 71.3268 191.575 71.9221 191.247C75.4225 189.318 81.9618 187.542 81.652 182.517C89.0457 183.109 96.5567 182.738 103.898 181.702C102.31 180.236 101.124 178.296 100.513 176.17C100.379 175.707 100.278 175.182 100.494 174.755C100.741 174.269 101.304 174.083 101.81 173.945C121.074 168.728 140.493 173.099 160.2 173.705C184.76 174.458 208.51 170.374 232.896 169.726Z" fill="#86E3D7"/>
<path d="M205.558 197.552C205.841 196.315 205.022 194.861 204.712 193.511C204.086 190.782 205.657 188.11 206.941 185.688C212.069 176.021 211.783 164.52 210.597 153.593C209.834 146.564 204.404 137.233 197.223 142.741C191.99 146.756 190.799 157.709 190.682 163.973C190.51 173.073 190.337 182.176 190.165 191.276C190.125 193.385 190.19 195.776 191.585 197.188C192.265 197.874 193.164 198.21 194.046 198.475C196.948 199.342 199.988 199.619 202.977 199.285C203.851 199.188 204.823 198.969 205.315 198.151C205.434 197.957 205.511 197.759 205.558 197.552Z" fill="#FFFFFA" stroke="#00171F" stroke-width="0.75" stroke-miterlimit="10"/>
<path d="M243.014 144.272C247.203 143.229 251.633 143.986 255.741 145.057C259.721 146.094 263.482 145.847 267.608 145.764C268.985 145.735 270.396 145.701 271.676 145.193C273.597 144.43 274.804 142.776 275.777 141.034C277.126 138.627 277.199 137.815 275.565 135.635C272.961 132.163 269.967 128.968 266.752 126.059C260.452 120.352 253.194 115.748 245.49 112.175C233.388 106.561 220.473 103.497 207.556 101.072C205.003 100.592 202.424 100.135 199.839 100.266C197.008 100.41 194.245 101.254 191.431 101.637C187.299 102.2 183.116 101.758 178.972 101.315C172.582 100.635 166.193 99.9544 159.803 99.2722C151.859 98.4259 143.818 97.5816 135.932 98.9543C128.524 100.242 120.179 103.542 114.713 109.116C109.728 114.199 103.389 119.805 100.427 126.612C100.156 127.233 99.9537 128.069 100.448 128.513C101.085 129.08 102.193 128.355 102.861 128.881C102.991 128.982 101.99 135.074 102.152 135.973C102.505 137.935 103.833 140.061 104.493 141.956C106.232 146.946 108.177 152.852 106.665 158.162C103.476 169.36 95.3438 178.26 92.7565 189.652C92.2503 191.875 91.9689 194.219 92.4062 196.46C94.1655 205.49 110.577 202.688 116.676 202.291C117.668 202.226 118.725 202.119 119.513 201.437C121.052 200.105 120.689 197.195 119.296 195.671C117.905 194.148 115.889 193.644 113.984 193.207C116.974 189.737 119.964 186.269 122.955 182.799C123.924 188.36 126.657 194.298 128.998 199.319C129.508 200.412 130.097 201.544 131.061 202.135C131.988 202.704 133.104 202.676 134.16 202.633C139.123 202.433 146.045 203.39 150.766 201.672C156.246 199.677 153.57 198.03 150.197 193.082C149.537 192.114 148.853 191.083 148.725 189.873C148.278 185.643 151.43 180.786 151.98 176.555C152.4 173.342 151.97 170.01 152.56 166.87C154.701 167.623 156.73 167.433 158.911 166.993C167.555 165.25 176.198 163.509 184.843 161.768C187.24 167.771 190.759 171.887 194.753 176.778C198.096 180.871 201.428 183.663 205.908 185.415C208.727 186.514 217.043 190.16 214.132 189.358C209.842 188.176 216.651 189.869 225.063 193.246C228.35 194.566 231.555 196.748 235.029 197.582C237.943 198.281 241.326 197.857 243.336 195.392C243.844 194.768 244.259 193.978 244.225 193.136C244.158 191.508 242.591 190.589 241.293 189.86C233.388 185.419 228.377 176.531 223.801 168.042C222.115 164.914 220.392 161.642 220.098 158.002C219.805 154.362 221.402 150.252 224.508 149.151" fill="#FFFFFA"/>
<path d="M151.991 169.56C152.487 164.029 151.839 158.371 150.114 153.159" stroke="#00171F" stroke-width="0.75" stroke-miterlimit="10"/>
<path d="M123.708 184.85C124.088 179.25 121.647 173.893 118.754 169.312C115.86 164.73 112.419 160.515 110.307 155.425" stroke="#00171F" stroke-width="0.75" stroke-miterlimit="10"/>
<path d="M182.363 153.658C184.606 158.995 185.147 162.655 187.922 167.668C192.528 175.991 200.1 182.174 208.429 186.356" stroke="#00171F" stroke-width="0.75" stroke-miterlimit="10"/>
<path d="M243.723 121.846C242.219 121.559 241.939 118.953 243.037 117.763C244.134 116.572 245.863 116.536 247.361 116.858" stroke="#00171F" stroke-width="0.75" stroke-miterlimit="10"/>
<path d="M251.746 208.464L253.56 213.694L247.549 216.079L155.602 217.682L143.012 217.281V212.872L134.237 216.48L130.804 220.488L109.692 220.601L93.4142 218.484L77.7705 217.281" stroke="#00171F" stroke-width="0.75" stroke-miterlimit="10"/>
<path d="M257.099 206.998C263.59 206.389 270.081 205.779 276.571 205.17" stroke="#00171F" stroke-width="0.75" stroke-miterlimit="10"/>
<path d="M275.812 136.014C274.801 135.937 273.522 137.413 274.384 138.597C274.793 139.158 275.532 139.334 276.194 139.241C277.417 139.071 276.992 137.696 276.692 136.805C276.514 136.275 276.18 136.04 275.812 136.014Z" fill="#00171F"/>
<path d="M257.994 126.766C255.166 126.766 255.162 131.161 257.994 131.161C260.822 131.161 260.826 126.766 257.994 126.766Z" fill="#00171F"/>
<path d="M112.195 238.725C113.802 238.99 115.831 239.978 115.874 242.003C115.875 242.113 115.896 242.208 115.907 242.311C117.562 242.271 119.216 242.311 120.868 242.39C120.881 242.262 120.898 242.141 120.896 242.003C120.778 236.35 115.913 233.403 111.199 233.211C106.848 233.035 101.629 234.886 100.808 240.173C99.8667 246.235 105.696 248.129 109.762 249.969C111.377 250.7 113.171 251.622 114.292 253.136C115.131 254.268 115.66 256.188 114.633 257.34C113.342 258.788 110.273 258.982 108.579 258.654C106.94 258.336 105.34 257.097 105.331 255.291C105.331 255.25 105.321 255.218 105.32 255.179C103.662 255.473 102 255.767 100.357 256.151C100.83 260.967 105.016 263.953 109.324 264.176C113.763 264.405 119.324 262.445 120.086 257.053C120.814 251.905 117.361 247.878 113.344 245.786C111.244 244.692 108.963 243.998 106.927 242.761C105.684 242.005 105.29 241.268 106.197 240.068C107.447 238.417 110.443 238.437 112.195 238.725Z" fill="#FFFFFA"/>
<path d="M144.048 247.557C143.55 246.249 138.75 232.905 138.626 232.905C136.476 232.992 134.328 233.091 132.18 233.199C128.613 242.068 126.074 251.386 122.784 260.371C122.597 261.141 122.399 261.908 122.225 262.677C124.15 262.744 126.078 262.769 128.003 262.789C128.516 260.602 129.038 258.413 129.489 256.22C133.301 256.149 137.113 256.127 140.924 256.165C140.986 256.271 141.05 256.364 141.106 256.485C141.916 258.247 142.485 260.205 143.224 262.064C145.114 262.046 147.002 261.963 148.892 261.868C146.884 257.372 145.801 252.17 144.048 247.557ZM135.406 249.303C134.352 249.396 133.301 249.526 132.245 249.601C131.938 249.623 131.632 249.627 131.327 249.637C131.613 248.714 131.901 247.79 132.199 246.871C132.936 244.599 133.707 242.341 134.485 240.085C134.564 239.857 134.644 239.624 134.721 239.391C134.831 239.383 134.942 239.354 135.052 239.328C135.528 239.421 136.003 239.49 136.484 239.539C137.56 242.783 138.591 246.043 139.551 249.327C138.175 249.163 136.779 249.181 135.406 249.303Z" fill="#FFFFFA"/>
<path d="M166.531 250.625C168.517 244.882 170.261 238.89 172.71 233.366C170.629 233.352 168.55 233.33 166.471 233.303C163.605 240.456 161.157 244.204 159.196 251.759C156.297 244.615 154.761 240.411 152.057 233.15C150.253 233.245 148.453 233.261 146.658 233.123C146.705 233.32 146.731 233.518 146.81 233.706C150.584 242.673 151.941 252.751 156.207 261.472C158.369 261.484 160.532 261.407 162.691 261.357C164.005 257.797 165.287 254.221 166.531 250.625Z" fill="#FFFFFA"/>
<path d="M192.656 256.947C191.292 256.801 189.924 256.696 188.554 256.627C186.187 256.511 183.818 256.54 181.453 256.653C181.522 254.484 181.556 252.316 181.572 250.147C181.709 250.135 181.846 250.121 181.982 250.11C185.511 250.299 189.087 250.001 192.602 249.853C192.564 248.039 192.529 246.223 192.484 244.408C188.981 244.398 185.476 244.412 181.982 244.676C181.838 244.667 181.694 244.653 181.548 244.643C181.516 242.472 181.447 240.302 181.359 238.133C182.242 238.129 183.126 238.105 184.009 238.064C186.78 238.176 189.55 238.329 192.315 238.534C192.263 236.805 192.209 235.077 192.149 233.348C186.784 233.694 181.415 233.964 176.063 233.391C176.033 233.417 176.002 233.439 175.972 233.468C176.963 239.682 176.108 246.21 176.322 252.463C176.421 255.367 176.574 258.277 176.7 261.187C179.361 261.568 182.04 261.796 184.726 261.889C187.407 261.843 190.089 261.778 192.768 261.693C192.755 260.112 192.74 258.532 192.72 256.951C192.699 256.953 192.679 256.949 192.656 256.947Z" fill="#FFFFFA"/>
<path d="M235.924 244.684C235.348 240.997 234.674 237.333 233.937 233.689C232.872 233.745 231.805 233.764 230.739 233.713C230.196 233.747 229.653 233.764 229.111 233.78C228.888 234.092 228.709 234.458 228.598 234.873C227.241 239.974 225.887 245.075 224.532 250.176C222.891 244.765 221.109 239.421 219.202 234.142C217.08 233.818 214.9 234.122 212.814 233.622C212.702 233.952 212.621 234.312 212.578 234.701C212.576 234.727 212.574 234.752 212.571 234.778C212.975 244.002 212.507 253.219 211.833 262.418C213.534 262.295 215.237 262.2 216.94 262.121C217.318 257.502 217.659 252.887 217.767 248.272C218.952 252.018 220.116 255.772 221.251 259.541C221.39 259.998 221.586 260.355 221.807 260.65C223.854 260.604 225.902 260.916 227.953 260.869C229.043 256.586 230.112 252.29 231.04 247.952C231.304 252.452 231.568 256.951 231.834 261.45C231.839 261.535 231.867 261.6 231.877 261.681C233.832 261.631 235.788 261.572 237.741 261.493C236.968 255.918 236.383 250.311 235.924 244.684Z" fill="#FFFFFA"/>
<path d="M253.299 255.408C251.231 255.317 249.162 255.305 247.094 255.331C247.178 253.78 247.247 252.227 247.307 250.673C251.023 250.973 254.749 250.939 258.462 250.586C258.458 248.434 258.426 246.283 258.273 244.139C256.759 243.931 255.202 243.943 253.724 243.872C251.65 243.775 249.577 243.679 247.504 243.586C247.532 241.954 247.519 240.32 247.522 238.686C247.558 238.688 247.593 238.69 247.629 238.692C248.19 238.718 248.752 238.741 249.313 238.765C250.483 238.812 251.654 238.852 252.824 238.886C254.657 238.941 256.493 238.965 258.329 238.988V232.885C252.882 232.937 247.432 233.04 241.987 233.247C242.384 239.47 242.172 245.708 242.036 251.943C241.965 255.181 241.987 258.423 241.974 261.665C243.346 261.74 244.73 261.643 246.091 261.503C248.284 261.276 250.468 261.063 252.665 260.918C254.614 260.79 256.566 260.669 258.516 260.567C258.554 259.065 258.597 257.564 258.598 256.062C258.598 255.946 258.641 255.871 258.666 255.778C258.318 255.74 257.968 255.714 257.627 255.685C256.184 255.564 254.742 255.471 253.299 255.408Z" fill="#FFFFFA"/>
</svg>
