<svg width="26" height="26" viewBox="0 0 26 26" fill="none" xmlns="http://www.w3.org/2000/svg">
<path fill-rule="evenodd" clip-rule="evenodd" d="M22.7175 4.03931L22.1829 3.95427L22.0426 3.43102L22.8491 3.21436L22.7175 4.03931ZM15.5566 11.5306L15.0957 11.8144L15.0946 11.8133L15.093 11.8106L15.0876 11.8019L15.0691 11.7711C15.054 11.7451 15.0312 11.7071 15.0041 11.6589C14.9283 11.5263 14.8551 11.3921 14.7848 11.2565C14.5621 10.8301 14.3678 10.3895 14.203 9.93752C14.0199 9.42619 13.8629 8.84065 13.8385 8.27406C13.8146 7.70965 13.9197 7.09702 14.3401 6.61656C14.7176 6.1854 15.4294 5.78836 16.1774 5.44494C16.9525 5.08798 17.8647 4.74565 18.7286 4.44936C19.7988 4.08388 20.8797 3.75078 21.97 3.45052L22.0241 3.43536L22.0431 3.42994L22.1839 3.95373L22.7186 4.03877L22.7153 4.05881L22.7061 4.11623C22.652 4.44853 22.5953 4.78041 22.536 5.11181C22.3917 5.92681 22.2343 6.73941 22.0637 7.54931C21.8709 8.45986 21.6466 9.41427 21.4088 10.2132C21.3033 10.5787 21.1791 10.9384 21.0367 11.2911C20.9132 11.5891 20.7669 11.8783 20.5893 12.082C20.209 12.5164 19.617 12.6524 19.0997 12.687C18.5602 12.7233 17.9622 12.6578 17.4243 12.5624C16.9446 12.476 16.4695 12.3657 16.0008 12.232C15.809 12.178 15.6183 12.1202 15.4288 12.0587L15.3947 12.0468L15.3855 12.0435L15.3828 12.043H15.3817L15.5566 11.5306ZM15.5566 11.5306L15.0957 11.8144L15.1975 11.9796L15.3817 12.043L15.5566 11.5306ZM15.9206 11.0794C16.4752 11.2524 17.0398 11.3917 17.6112 11.4964C18.1117 11.5847 18.6122 11.6346 19.0271 11.6064C19.4653 11.5771 19.6852 11.4699 19.7735 11.3691C19.8299 11.3041 19.9219 11.1503 20.0357 10.8762C20.1636 10.5584 20.2751 10.2343 20.3699 9.90502C20.5958 9.14669 20.813 8.22423 21.0036 7.32561C21.1866 6.45619 21.3542 5.58361 21.5063 4.70827L21.3389 4.75702C20.7382 4.93415 19.9268 5.18386 19.0802 5.47419C18.2319 5.76506 17.3582 6.09386 16.6297 6.42915C15.8735 6.7769 15.3633 7.09269 15.1553 7.33048C14.989 7.52006 14.9034 7.81202 14.9213 8.22748C14.9386 8.64077 15.0572 9.1104 15.223 9.57136C15.4127 10.0927 15.6461 10.5972 15.9206 11.0794ZM5.5591 5.40269L5.41881 5.92594L4.88365 6.01098L4.75256 5.18656L5.5591 5.40269ZM10.8035 12.0831L11.2645 12.3664L11.2656 12.3653L11.2666 12.3631L11.271 12.3561L11.2867 12.3301C11.3684 12.1909 11.4464 12.0497 11.5207 11.9065C11.6637 11.6313 11.8462 11.2473 11.999 10.8226C12.1496 10.4023 12.2806 9.91531 12.3007 9.44081C12.3213 8.96794 12.2335 8.44036 11.8684 8.02327C11.5456 7.65386 10.9481 7.32452 10.3415 7.04502C9.70719 6.75306 8.9624 6.47356 8.25877 6.23252C7.38729 5.93506 6.50704 5.66392 5.61923 5.41948L5.57481 5.40702L5.5591 5.40269L5.41881 5.92594L4.88365 6.01098L4.88635 6.02723L4.89394 6.07436L4.92319 6.25094C5.06935 7.1271 5.23387 8.0001 5.41665 8.86936C5.57373 9.61036 5.75681 10.3887 5.95073 11.0414C6.04823 11.3675 6.15006 11.6714 6.25677 11.9276C6.35806 12.1714 6.48211 12.42 6.63811 12.5976C6.97394 12.9822 7.49015 13.096 7.91752 13.1241C8.36819 13.1545 8.86273 13.0998 9.30419 13.0223C9.85847 12.9228 10.4051 12.7845 10.94 12.6085L10.9676 12.5993L10.9758 12.5966L10.9785 12.5955L10.8035 12.0831ZM10.8035 12.0831L11.2645 12.3664L11.1626 12.5321L10.9785 12.5955L10.8035 12.0831ZM10.439 11.6313C10.6506 11.2552 10.8312 10.8625 10.979 10.457C11.1117 10.087 11.2049 9.71598 11.2184 9.39423C11.2325 9.07031 11.1643 8.8634 11.0532 8.73611C10.8999 8.56169 10.5045 8.31252 9.88865 8.02923C9.30148 7.75894 8.59515 7.49298 7.90723 7.25736C7.30797 7.05278 6.70441 6.86098 6.09698 6.68211L6.09915 6.69565C6.19123 7.21565 6.32231 7.91765 6.47669 8.64511C6.63106 9.37419 6.8071 10.1201 6.9891 10.7327C7.08065 11.0393 7.17056 11.3041 7.25723 11.5121C7.34931 11.7326 7.41865 11.8447 7.45331 11.8848C7.49773 11.9352 7.64127 12.0202 7.99011 12.0435C8.31565 12.0652 8.71323 12.0262 9.11623 11.9552C9.56345 11.8746 10.0052 11.7668 10.439 11.6313ZM9.25273 16.795C9.11515 16.8026 9.04798 16.8221 9.03065 16.8297C8.78527 16.9407 8.03994 17.2007 7.39644 17.4201C7.06602 17.5333 6.74915 17.6395 6.51515 17.718L6.49998 17.7234V20.6501C6.59531 20.6457 6.69769 20.6419 6.80223 20.6381C7.25073 20.6219 7.78427 20.6056 8.01556 20.6154C8.98623 20.6539 9.71531 20.8835 10.3902 21.0964L10.4049 21.1013C11.0375 21.3006 11.6236 21.4837 12.3911 21.5416C12.6078 21.5579 12.8185 21.579 13.0151 21.5985H13.0179C13.7729 21.6744 14.2702 21.7123 14.6553 21.5725C14.9549 21.4636 16.0517 20.955 17.1578 20.3987C17.7049 20.1236 18.2411 19.8435 18.6674 19.6036C18.8814 19.4833 19.0629 19.3761 19.2021 19.2861C19.2714 19.2412 19.3266 19.2033 19.3689 19.1724C19.3855 19.1602 19.4018 19.1476 19.4176 19.1345L19.4328 19.1215C19.487 19.0668 19.5444 18.8761 19.4512 18.6968C19.4074 18.613 19.3349 18.5476 19.247 18.5126C19.1387 18.4655 18.9545 18.4292 18.662 18.4774C18.0023 18.5858 17.2141 18.9032 16.4271 19.2233L16.4163 19.2282C16.0295 19.3853 15.6417 19.5429 15.2977 19.6577C14.9673 19.7677 14.6006 19.8663 14.281 19.8473C13.8423 19.8202 13.0726 19.7065 12.4377 19.6036C12.0729 19.5446 11.7085 19.4828 11.3446 19.4183L11.2742 19.4059L11.2493 19.401L11.3522 18.3263L13.8276 18.3561H13.8331C13.862 18.353 13.8906 18.3475 13.9186 18.3399C14.0042 18.3182 14.151 18.2646 14.3357 18.134C14.3926 18.0934 14.4674 18.0186 14.5372 17.9184C14.5643 17.8792 14.5889 17.8383 14.6109 17.796C14.3091 17.7768 14.0092 17.7344 13.7139 17.6693C13.5531 17.6343 13.3936 17.5936 13.2356 17.5474L13.2172 17.542L10.1855 16.8671L10.1568 16.8622C9.99538 16.8354 9.83291 16.8155 9.66981 16.8026C9.53109 16.7911 9.39178 16.7886 9.25273 16.795ZM10.2916 16.3368L10.3897 15.8043L10.3994 15.8059L13.4967 16.4949L13.5194 16.502L13.5238 16.5036L13.5444 16.5096L13.6299 16.5339C13.7052 16.5545 13.8136 16.5827 13.9425 16.6109C14.2057 16.6677 14.5351 16.7203 14.8395 16.7203C15.1444 16.7203 15.4759 16.834 15.6547 17.1579C15.8074 17.4353 15.7695 17.7354 15.7159 17.9336C15.6661 18.1089 15.5919 18.2763 15.4954 18.4309C15.6601 18.3659 15.8351 18.2954 16.0187 18.2207L16.0523 18.2066C16.7987 17.9033 17.6935 17.5393 18.486 17.4087C19.4068 17.2581 20.0974 17.5886 20.4132 18.1996C20.6916 18.7385 20.6299 19.4492 20.2047 19.8814C20.098 19.9898 19.9393 20.0997 19.7876 20.1978C19.5944 20.32 19.3979 20.4369 19.1983 20.5482C18.7514 20.7996 18.1984 21.0883 17.6437 21.3672C16.5484 21.9181 15.3947 22.4571 15.0242 22.5914C14.3818 22.8243 13.6386 22.7501 12.9783 22.684L12.9095 22.677C12.7097 22.6565 12.5096 22.6384 12.3094 22.6228C11.4102 22.5546 10.7212 22.3374 10.0918 22.1391L10.0782 22.1348C9.40115 21.9214 8.79123 21.7312 7.97223 21.6982C7.7924 21.6911 7.30815 21.7041 6.84123 21.7215C6.5783 21.731 6.31541 21.7417 6.05256 21.7534L5.98269 21.7567L5.4161 21.7827V16.9424L5.89115 16.7847C6.27661 16.6566 6.66156 16.527 7.04598 16.3958C7.71981 16.1656 8.39906 15.9267 8.58431 15.8433C8.7831 15.7534 9.00898 15.7241 9.1899 15.7133C9.38219 15.7025 9.5799 15.7106 9.75269 15.7236C9.96068 15.7399 10.1678 15.7657 10.3734 15.8011L10.3848 15.8032H10.3881L10.3891 15.8038H10.3902L10.2916 16.3368Z" fill="black"/>
<path fill-rule="evenodd" clip-rule="evenodd" d="M19.0396 7.17195C19.0936 7.21818 19.1381 7.27461 19.1703 7.33802C19.2026 7.40142 19.222 7.47056 19.2276 7.54148C19.2331 7.6124 19.2246 7.68372 19.2026 7.75136C19.1805 7.819 19.1454 7.88164 19.0992 7.9357C17.4845 9.81961 15.4743 12.5805 14.5871 14.8246C14.5609 14.8908 14.5219 14.9511 14.4724 15.0022C14.4229 15.0533 14.3639 15.0942 14.2986 15.1224C14.2333 15.1507 14.1631 15.1658 14.0919 15.167C14.0208 15.1681 13.9501 15.1552 13.884 15.129C13.8178 15.1029 13.7575 15.0639 13.7064 15.0144C13.6553 14.9649 13.6144 14.9058 13.5862 14.8405C13.5579 14.7752 13.5428 14.705 13.5416 14.6339C13.5405 14.5628 13.5534 14.4921 13.5796 14.4259C14.5345 12.0107 16.6405 9.13928 18.2758 7.23099C18.3694 7.12196 18.5024 7.05455 18.6456 7.04358C18.7888 7.0326 18.9305 7.07898 19.0396 7.17249M8.33083 8.90961C8.27497 8.9537 8.22835 9.00837 8.19362 9.07048C8.1589 9.1326 8.13675 9.20094 8.12845 9.27162C8.12015 9.34229 8.12586 9.41391 8.14525 9.48238C8.16464 9.55085 8.19733 9.61483 8.24145 9.67066C9.45587 11.2117 10.7819 13.1839 11.4113 14.8197C11.4653 14.9503 11.5682 15.0546 11.6981 15.1103C11.8279 15.1661 11.9744 15.1689 12.1063 15.1181C12.2382 15.0674 12.345 14.9671 12.404 14.8387C12.463 14.7103 12.4695 14.5639 12.422 14.4308C11.7336 12.6412 10.3269 10.566 9.09187 9.00007C9.003 8.88726 8.87296 8.81435 8.73035 8.79739C8.58774 8.78043 8.44368 8.82079 8.33083 8.90961Z" fill="black"/>
<path d="M3.25 15.7085H6.5V22.7502H3.25V15.7085Z" fill="black"/>
</svg>
