<svg width="26" height="26" viewBox="0 0 26 26" fill="none" xmlns="http://www.w3.org/2000/svg">
<path d="M9.98509 2.9792H17.8349C17.9295 2.97887 18.0227 3.00214 18.1061 3.04691C18.1894 3.09168 18.2603 3.15654 18.3122 3.2356C18.3642 3.31466 18.3956 3.40543 18.4036 3.4997C18.4116 3.59396 18.396 3.68874 18.3582 3.77545L15.2869 10.9439H20.4642C20.5075 10.9443 20.5498 10.9571 20.5862 10.9808C20.6225 11.0045 20.6512 11.0381 20.6691 11.0776C20.687 11.1171 20.6932 11.1609 20.687 11.2038C20.6808 11.2467 20.6625 11.2869 20.6343 11.3198L10.0761 22.9234C10.0473 22.9664 10.004 22.9978 9.95405 23.0116C9.90412 23.0255 9.85087 23.0211 9.80396 22.999C9.75704 22.977 9.71957 22.9389 9.69835 22.8916C9.67712 22.8444 9.67354 22.7911 9.68825 22.7414L10.7358 14.3564H5.889C5.79487 14.3576 5.70189 14.3356 5.61837 14.2921C5.53485 14.2487 5.4634 14.1852 5.41039 14.1074C5.35738 14.0297 5.32447 13.9399 5.3146 13.8463C5.30473 13.7527 5.31821 13.6581 5.35384 13.5709L9.44884 3.33128C9.49225 3.22525 9.56667 3.1348 9.66236 3.07178C9.75804 3.00877 9.87053 2.9772 9.98509 2.9792Z" stroke="black" stroke-width="1.5" stroke-linecap="round" stroke-linejoin="round"/>
</svg>
