<svg width="64" height="64" viewBox="0 0 64 64" fill="none" xmlns="http://www.w3.org/2000/svg">
<path d="M32 5.14288C37.9105 5.14288 43.579 7.49084 47.7584 11.6702C51.9378 15.8496 54.2857 21.5181 54.2857 27.4286C54.2857 36.8457 47.6686 47.1086 34.6057 58.3269C33.8794 58.9508 32.9533 59.2935 31.9957 59.2927C31.0382 59.2919 30.1127 58.9475 29.3874 58.3223L28.5234 57.5726C16.0389 46.6469 9.71429 36.6355 9.71429 27.4286C9.71429 21.5181 12.0622 15.8496 16.2416 11.6702C20.421 7.49084 26.0895 5.14288 32 5.14288ZM32 18.8572C29.7267 18.8572 27.5465 19.7602 25.9391 21.3677C24.3316 22.9751 23.4286 25.1553 23.4286 27.4286C23.4286 29.7019 24.3316 31.8821 25.9391 33.4895C27.5465 35.097 29.7267 36 32 36C34.2733 36 36.4535 35.097 38.0609 33.4895C39.6684 31.8821 40.5714 29.7019 40.5714 27.4286C40.5714 25.1553 39.6684 22.9751 38.0609 21.3677C36.4535 19.7602 34.2733 18.8572 32 18.8572Z" fill="#04F06A"/>
</svg>
