<svg width="114" height="151" viewBox="0 0 114 151" fill="none" xmlns="http://www.w3.org/2000/svg">
<path d="M20.9578 27.8498C-0.472331 47.1524 -6.03838 78.564 6.90831 104.201C8.85489 108.056 14.659 104.665 12.7157 100.818C1.07829 77.7722 6.59737 49.8096 25.7133 32.5903C28.9328 29.6918 24.1643 24.9618 20.9578 27.8498Z" fill="#00171F"/>
<path d="M82.0126 30.0654C79.3138 26.6939 74.5826 31.465 77.2571 34.8067C94.8419 56.7769 92.2492 88.8617 72.0166 108.169C68.8838 111.159 73.6441 115.895 76.7729 112.91C87.756 102.43 94.5966 88.1264 95.7456 73.0033C96.9237 57.5009 91.6759 42.139 82.0126 30.0654Z" fill="#00171F"/>
<mask id="mask0_16_589" style="mask-type:luminance" maskUnits="userSpaceOnUse" x="1" y="60" width="83" height="83">
<path d="M83.4845 101.79C83.4845 107.555 82.2651 113.299 79.895 118.559C73.231 133.349 58.6438 142.757 42.3878 142.757C19.6904 142.757 1.29102 124.416 1.29102 101.79C1.29102 79.1645 19.6904 60.8232 42.3878 60.8232C65.0852 60.8232 83.4845 79.1645 83.4845 101.79Z" fill="white"/>
</mask>
<g mask="url(#mask0_16_589)">
<path d="M83.4845 101.79C83.4845 107.555 82.2651 113.299 79.895 118.559C73.231 133.349 58.6438 142.757 42.3878 142.757C19.6904 142.757 1.29102 124.416 1.29102 101.79C1.29102 79.1645 19.6904 60.8232 42.3878 60.8232C65.0852 60.8232 83.4845 79.1645 83.4845 101.79Z" fill="#1E91D6"/>
</g>
<mask id="mask1_16_589" style="mask-type:luminance" maskUnits="userSpaceOnUse" x="1" y="60" width="83" height="83">
<path d="M83.4845 101.79C83.4845 107.555 82.2651 113.299 79.895 118.559C73.231 133.349 58.6438 142.757 42.3878 142.757C19.6904 142.757 1.29102 124.416 1.29102 101.79C1.29102 79.1645 19.6904 60.8232 42.3878 60.8232C65.0852 60.8232 83.4845 79.1645 83.4845 101.79Z" fill="white"/>
</mask>
<g mask="url(#mask1_16_589)">
<path d="M30.6872 62.7624C30.8872 62.5364 31.1617 62.3927 31.4321 62.2587C33.2346 61.3684 34.9131 60.1593 37.0654 60.3869C38.1269 60.4991 39.1075 60.985 40.0614 61.4628C41.0735 61.9697 42.0865 62.4774 43.0986 62.9843C43.6914 63.2814 44.2946 63.5817 44.9472 63.6979C45.7456 63.8391 47.4663 64.1951 46.6631 65.4535C46.3545 65.937 45.7545 65.9353 45.4485 66.297C44.9845 66.845 45.2145 67.6538 45.4112 68.2858C45.6347 69.0026 45.8614 69.8331 45.4444 70.4579C45.1626 70.8808 44.6574 71.0859 44.2541 71.395C43.5885 71.9051 42.9278 72.9682 42.7326 73.785C42.5148 74.6947 42.927 75.338 42.0654 76.041C40.9521 76.9491 39.5205 77.3446 38.1941 77.9016C36.8686 78.4585 35.5261 79.302 35.0419 80.6524C34.8354 81.2287 34.7107 81.9681 34.1285 82.1626C33.688 82.3095 33.1973 82.0197 32.9617 81.6202C32.7261 81.2206 32.6848 80.7412 32.6492 80.2795C32.5957 79.5861 32.5415 78.8936 32.488 78.2002C32.4629 77.8717 32.4386 77.5295 32.5633 77.2235C32.6613 76.9838 32.8419 76.7885 32.9779 76.5681C33.2362 76.15 33.3285 75.6536 33.416 75.1701C33.6403 73.9319 34.067 72.9415 34.3731 71.7647C34.5067 71.2529 34.4759 70.6726 34.1682 70.2416C33.8403 69.7823 33.1981 69.4368 33.2645 68.8766C33.284 68.7144 33.3649 68.5667 33.4014 68.4077C33.5374 67.8055 32.9747 67.243 32.3779 67.0759C31.7811 66.9096 31.1463 67.0032 30.5285 66.9499C30.3236 66.9322 30.1026 66.8894 29.9681 66.7336C29.556 66.2566 30.4418 65.811 29.7366 65.5059C30.2386 64.6624 30.0184 63.5171 30.6872 62.7624Z" fill="#04F06A"/>
<path d="M10.139 71.0937C12.0985 69.4035 14.0694 69.0871 16.6184 69.3414C17.9642 69.4754 18.7949 70.1001 19.9828 70.5965C21.327 71.1591 22.7521 71.2947 24.1877 71.4578C25.574 71.6152 26.9983 71.842 28.1829 72.5773C29.6266 73.474 31.0809 75.9706 29.2744 77.2104C28.4201 77.7964 27.1383 77.5446 26.7043 76.5792C26.578 76.2983 26.5116 75.9932 26.3772 75.7164C25.7553 74.4378 24.9278 75.4572 24.6363 76.2015C24.2792 77.1103 24.0768 77.8803 23.08 78.3364C22.1181 78.7763 21.8387 77.8142 21.1229 77.8222C20.4824 77.8295 19.5213 79.1129 19.063 79.5342C18.2306 80.2994 17.3188 81.3213 17.6338 82.4053C17.9877 83.6225 19.5197 84.081 19.3148 85.4968C19.2443 85.9819 18.6524 86.2846 19.029 86.8568C19.4541 87.5034 20.0492 87.0336 20.3901 86.5622C20.8014 85.9924 21.2265 85.3894 21.3083 84.692C21.3844 84.039 21.1472 83.3836 21.1917 82.7274C21.2484 81.9025 21.7893 81.1284 22.5456 80.7886C23.3019 80.4488 24.242 80.5585 24.8995 81.063C25.2784 81.3536 25.5618 81.758 25.957 82.0268C26.344 82.2899 26.8145 82.4061 27.2096 82.6572C28.0744 83.2069 28.4226 84.2868 28.5853 85.2966C28.7214 86.1401 28.7724 86.9973 28.7384 87.8505C28.7133 88.4704 28.5942 89.1734 28.072 89.51C27.4201 89.9297 26.5408 89.5415 25.7877 89.7304C24.4857 90.0573 24.6873 91.4851 23.795 92.0873C23.3343 92.398 22.6209 92.1769 22.0978 92.3544C21.51 92.5546 21.0703 92.9631 20.6751 93.428C19.6387 94.6476 19.0565 96.2272 17.7796 97.2467C17.0168 97.8561 15.965 98.3226 15.7747 99.2783C15.6929 99.6924 15.7998 100.122 15.7552 100.542C15.7107 100.961 15.4135 101.422 14.9909 101.396C14.8135 101.385 14.6548 101.29 14.5002 101.203C13.5576 100.681 12.4443 100.415 11.3852 100.615C10.3252 100.816 9.34141 101.529 8.96084 102.535C8.76813 103.045 8.74627 103.658 9.06449 104.101C9.5317 104.753 10.4847 104.778 11.2799 104.664C12.075 104.55 12.9552 104.382 13.6257 104.824C14.6111 105.472 14.4888 106.954 15.0994 107.96C15.3714 108.409 15.7876 108.754 16.0791 109.19C16.5787 109.938 16.5326 110.621 15.6419 110.56C14.8054 110.502 13.9002 109.534 13.5309 108.86C13.2977 108.434 13.1334 107.938 12.735 107.658C12.4532 107.461 12.0985 107.406 11.7576 107.357C10.8192 107.222 9.88069 107.087 8.94222 106.951C8.04018 106.821 7.06447 106.654 6.4426 105.991C6.16244 105.692 5.98106 105.318 5.80292 104.949C5.30736 104.455 5.36971 102.879 4.57699 102.724C4.38914 102.688 4.19885 102.755 4.01181 102.794C3.48711 102.905 2.91868 102.787 2.48143 102.477C1.9211 102.08 1.61583 101.425 1.33405 100.799C0.14537 98.1563 0.678981 94.625 1.02554 91.8161C1.46037 88.2976 2.07576 84.7146 3.81585 81.6232C4.28711 80.7854 4.82558 79.9411 5.44259 79.2017C5.85717 78.7045 6.40211 78.4478 6.80859 77.9829C7.81994 76.8294 7.49848 74.8777 8.08796 73.5233C8.51469 72.5442 9.32846 71.7919 10.139 71.0937Z" fill="#04F06A"/>
<path d="M25.5879 130.625C25.3668 131.136 24.9992 131.635 25.1417 132.158C25.3806 133.033 26.8081 133.127 27.0373 134.004C27.1005 134.245 27.0535 134.5 27.0729 134.747C27.1353 135.558 28.928 138.521 29.7361 138.418C30.1134 138.369 30.4325 138.124 30.724 137.88C31.4705 137.255 32.2333 136.444 32.1677 135.475C32.124 134.835 31.7159 134.261 31.6722 133.621C31.6422 133.182 31.7863 132.754 31.8697 132.322C32.2479 130.36 31.5418 127.928 32.1386 126.033C32.6317 124.47 34.6252 124.312 34.8511 122.759C35.0188 121.608 35.1856 120.458 35.3532 119.307C35.5354 118.054 35.6673 116.618 34.8212 115.672C33.7977 114.527 31.924 114.736 30.6098 113.939C29.7013 113.387 29.1531 112.415 28.4252 111.642C27.6972 110.87 26.5409 110.269 25.5944 110.752C25.5563 110.016 24.7693 109.539 24.0381 109.426C23.3077 109.313 22.5433 109.422 21.8364 109.206C21.2631 109.032 20.5967 108.449 19.9749 108.508C19.3522 108.567 18.7595 109.297 18.2186 109.595C17.6915 109.884 16.9894 110.002 16.5165 109.632C16.2655 109.812 16.5157 110.228 16.8145 110.308C17.1133 110.388 17.4534 110.323 17.719 110.481C18.0526 110.68 18.1117 111.129 18.1352 111.516C18.255 113.511 16.2364 114.497 16.5004 116.411C16.8259 118.768 18.9465 118.263 20.3846 119.058C20.6939 119.228 20.5927 119.704 20.7636 120.013C20.987 120.418 21.5644 120.401 21.9959 120.57C22.7101 120.851 23.034 121.693 23.0696 122.458C23.2041 125.342 23.6057 126.761 25.3417 129.103C25.5077 129.326 25.6786 129.561 25.7272 129.836C25.7733 130.107 25.6996 130.368 25.5879 130.625Z" fill="#04F06A"/>
<path d="M64.6748 115.351C64.6901 116.103 65.1679 116.772 65.2861 117.516C65.3987 118.225 65.1582 118.982 64.6553 119.496C64.0067 120.159 63.4966 120.415 63.0197 121.17C62.167 122.52 61.9258 123.714 61.3096 125.09C60.9881 125.808 60.2804 126.263 59.6099 126.677C58.2229 127.533 55.7378 129.758 55.8609 126.788C55.8836 126.238 55.6196 125.723 55.3678 125.234C54.7281 123.989 54.1249 122.718 53.7249 121.378C53.5751 120.877 53.4536 120.357 53.4868 119.836C53.5265 119.217 53.7824 118.617 53.7338 117.999C53.6358 116.747 52.3459 115.86 52.1597 114.619C52.0528 113.902 52.3321 113.19 52.4091 112.47C52.5702 110.957 51.324 110.704 50.2115 110.204C49.29 109.79 48.4131 111.095 47.4042 111.042C46.8795 111.015 46.4535 110.625 45.9661 110.429C45.1515 110.101 43.9191 110.099 43.7976 109.231C43.7588 108.953 43.8673 108.644 43.7199 108.406C43.494 108.041 42.9272 108.183 42.532 108.013C42.0786 107.818 41.9304 107.238 41.9871 106.75C42.0438 106.261 42.2438 105.792 42.2503 105.3C42.2583 104.626 41.9037 103.934 42.1385 103.302C42.3337 102.775 42.8721 102.474 43.2754 102.083C43.8495 101.526 44.1636 100.761 44.4616 100.02C44.9442 98.8218 45.4276 97.624 45.9102 96.4253C45.6341 96.0201 46.0811 95.5891 46.5726 95.5931C47.0641 95.5972 47.5183 95.8708 48.009 95.9015C48.4479 95.9289 48.8706 95.7602 49.2932 95.6416C50.4479 95.3163 51.8301 95.4123 52.6544 96.2817C53.1929 96.8499 53.6779 97.7895 54.4374 97.5957C54.7864 97.5069 55.0731 97.1703 55.4301 97.2139C56.2779 97.3181 55.9038 99.1148 56.7557 99.1729C57.3621 99.2141 57.4504 98.3125 57.2998 97.7257C57.7346 97.3729 58.3962 97.5925 58.848 97.9234C59.2998 98.2544 59.712 98.6975 60.2642 98.796C60.9476 98.9179 62.5007 98.5918 61.9347 99.8283C62.5436 100.009 62.8602 100.514 63.1007 101.076C63.5833 102.208 64.0659 103.34 64.5485 104.472C64.7063 104.842 64.8715 105.223 65.1606 105.505C65.4327 105.771 65.793 105.926 66.0869 106.168C66.4748 106.487 66.7347 106.956 66.7995 107.452C66.8278 107.675 66.8788 107.97 67.1031 107.993C67.2327 108.006 67.3428 107.91 67.444 107.828C67.9752 107.398 68.7121 107.233 69.376 107.396C69.1574 109.14 68.1031 110.604 66.938 111.861C66.0813 112.782 64.6456 113.949 64.6748 115.351Z" fill="#04F06A"/>
<path d="M80.4407 106.044C80.1209 104.964 79.5184 103.886 78.8132 103.312C78.1945 102.808 77.3557 102.612 76.7848 102.056C75.9905 101.282 75.7686 99.8764 74.7079 99.5447C74.022 99.33 73.2973 99.6899 72.5783 99.7133C70.9507 99.7658 69.7904 98.1612 68.2714 97.576C68.2033 98.8263 69.1791 100.049 70.4163 100.265C70.7961 100.331 71.2171 100.324 71.5167 100.566C71.7483 100.753 71.8617 101.059 72.1005 101.236C72.541 101.563 73.2584 101.351 73.6358 101.749C74.0747 102.212 73.6285 102.957 73.158 103.388C71.6074 104.808 69.6689 105.805 67.609 106.24C67.1701 106.333 67.3013 106.331 66.8535 106.356C66.4058 106.381 65.9102 106.154 65.7766 105.728C65.6495 105.322 65.8762 104.886 65.8219 104.465C65.7912 104.224 65.6705 104.005 65.5515 103.793C64.7118 102.287 63.8721 100.782 63.0324 99.2775C62.3336 99.5172 61.7215 99.6302 60.983 99.6221C59.7571 99.6084 58.5717 98.8351 58.0688 97.7205C58.7684 97.8577 59.4867 97.9037 60.1984 97.8561C60.851 97.8125 61.5579 97.6575 61.9652 97.1474C62.3725 96.6372 62.2268 95.6969 61.5887 95.5516C60.8429 95.8963 59.9191 95.8252 59.2356 95.3708C58.6907 95.0092 58.7474 94.3917 58.2454 93.9833C57.6802 93.524 56.881 93.5063 56.1538 93.5644C55.4267 93.6225 54.6664 93.7298 53.9902 93.4562C53.5611 93.2827 53.2048 92.9679 52.7862 92.7693C51.8858 92.3431 50.6777 92.4755 49.7781 92.8532C48.5813 93.3553 49.1926 93.8614 48.574 94.8001C48.1772 95.4015 47.2015 95.7268 46.4971 95.6719C45.7521 95.6138 45.0185 95.0431 44.9707 94.2997C44.8736 92.7967 46.4987 92.8185 47.272 92.0574C48.0096 91.3301 47.7052 90.1444 48.6202 89.4099C49.0347 89.0765 49.5594 88.865 49.8744 88.4381C50.4825 87.6131 50.1918 86.1667 51.1206 85.73C51.885 85.3708 52.7206 86.0876 53.5643 86.1352C54.2097 86.1715 54.8567 85.7599 55.0947 85.161C55.3336 84.562 55.1457 83.8202 54.6518 83.4054C54.1328 82.9703 53.3522 82.8888 52.9238 82.365C52.4218 81.7515 52.6356 80.8386 52.9425 80.1081C53.4502 78.9006 54.1473 77.7738 55.0008 76.7794C55.6089 76.0715 56.349 75.4031 57.2656 75.2239C58.5911 74.9648 58.5854 75.6606 59.0996 76.5792C59.7717 77.7803 60.4154 77.0255 61.5417 76.6954C62.5353 76.404 63.3296 76.2071 64.043 75.3757C64.9644 74.303 64.5248 73.0244 65.1742 71.8912C65.4689 71.3778 66.0487 71.0404 66.6414 71.038C69.1459 71.0267 71.5945 71.2575 73.9054 72.3811C76.3127 73.5523 78.3897 75.2966 80.4124 77.0207C81.3104 77.7859 82.2189 78.5632 82.8836 79.5366C84.525 81.9387 84.4197 85.081 84.2254 87.9812C84.1565 89.016 84.0885 90.0871 84.4521 91.0589C84.7144 91.7612 85.1906 92.373 85.4189 93.0873C85.648 93.8057 85.6132 94.5781 85.5541 95.3288C85.3557 97.8803 84.9071 100.413 84.2262 102.881C83.6399 105.004 82.5193 106.628 81.6164 108.616C81.5233 108.821 81.3986 109.053 81.1759 109.097C80.9363 109.143 80.7112 108.93 80.6472 108.695C80.5832 108.46 80.6326 108.212 80.6626 107.97C80.7322 107.41 80.6431 106.727 80.4407 106.044Z" fill="#04F06A"/>
<path d="M48.043 85.1382C48.0025 84.6135 47.7838 83.9968 47.2664 83.8927C47.179 83.8749 47.0834 83.8758 47.0049 83.9194C46.9012 83.9767 46.8478 84.0961 46.8267 84.2123C46.6972 84.917 47.4656 85.5216 47.4348 86.2375C47.4187 86.608 47.1895 86.9325 46.9563 87.2215C46.7231 87.5104 46.4688 87.805 46.3863 88.1667C46.3037 88.5283 46.4672 88.9779 46.8276 89.0707C47.0689 89.1328 47.3174 89.0231 47.5417 88.9157C48.315 88.5476 49.3596 88.3378 49.0737 87.3216C48.9596 86.9164 48.396 86.7033 48.2138 86.3134C48.0486 85.9566 48.0729 85.5216 48.043 85.1382Z" fill="#04F06A"/>
<path d="M45.9669 85.9213C45.9272 86.2902 45.8875 86.6591 45.8478 87.0279C45.8219 87.2701 45.7887 87.5292 45.626 87.71C45.4632 87.8916 45.1223 87.9279 44.9968 87.7197C44.9426 87.6293 44.9409 87.5179 44.945 87.4129C44.9636 86.8657 45.0778 86.3217 45.2818 85.814C45.5191 85.8576 45.7563 85.9011 45.9928 85.9447" fill="#04F06A"/>
<path d="M41.7944 79.0582C41.6082 79.2213 41.7434 79.5587 41.9734 79.6499C42.2034 79.7411 42.4633 79.6676 42.6997 79.5942C42.9823 79.5062 43.2649 79.4182 43.5475 79.3302C43.6973 79.2834 43.8738 79.2043 43.8868 79.0493C43.8924 78.9791 43.8609 78.9121 43.8269 78.85C43.5329 78.3148 42.9378 77.8911 42.3362 78.0008C41.7345 78.1106 41.3297 78.9291 41.7394 79.3819" fill="#04F06A"/>
<path d="M68.7025 119.722C68.5252 120.305 68.2329 120.849 68.0191 121.42C67.8539 121.861 67.7341 122.321 67.5179 122.739C67.3017 123.157 66.9689 123.542 66.5219 123.692C66.0749 123.842 65.5081 123.691 65.2935 123.272C64.5365 121.793 66.4102 119.796 67.2596 118.739C68.4142 117.3 69.2895 117.794 68.7025 119.722Z" fill="#04F06A"/>
<path d="M23.7318 65.0854C22.9974 65.33 22.3739 65.887 22.0492 66.5876C21.9974 66.6998 21.9512 66.8225 21.9674 66.9451C22.0055 67.2349 22.3536 67.3746 22.6468 67.3729C22.9399 67.3713 23.2435 67.2906 23.5205 67.3875C24.3439 67.6748 25.3585 67.8976 25.9942 68.5498C26.1456 68.7048 26.2808 68.8791 26.4606 69.0002C26.8322 69.2496 27.3253 69.227 27.7602 69.1164C27.863 69.0906 27.9715 69.0551 28.0371 68.972C28.161 68.8154 28.0711 68.5869 27.9675 68.4166C27.5083 67.6627 26.8322 67.042 26.0411 66.6473C25.8484 66.5513 25.6298 66.448 25.5569 66.2454C25.4193 65.8636 25.4346 65.3478 24.8249 65.5899C24.5755 65.6892 24.3828 65.9007 24.1334 66C23.884 66.0992 23.514 66.0032 23.4945 65.736C23.4889 65.6585 23.5156 65.5802 23.4994 65.5036C23.4832 65.4277 23.3901 65.3599 23.3294 65.4091" fill="#04F06A"/>
<path d="M28.9585 65.3973C28.99 65.3376 29.0143 65.2763 29.0289 65.2165C29.1285 64.8049 28.9601 64.3698 28.7099 64.0268C28.3463 63.5296 26.3868 62.1558 26.6556 63.8089C26.7293 64.2609 27.5293 64.5789 27.7674 64.9615C27.9455 65.2488 27.6184 65.6637 28.0848 65.8421C28.4281 65.9753 28.7957 65.7057 28.9585 65.3973Z" fill="#04F06A"/>
</g>
<path d="M85.0736 113.213C78.1618 110.99 70.5002 113.73 65.4872 118.687C59.9479 124.164 57.8078 131.912 57.1486 139.445C57.143 139.514 57.1737 139.978 57.1713 140.045C57.4839 139.932 57.7956 139.805 58.1066 139.679C60.2248 138.814 62.2515 137.694 64.2175 136.514C64.2912 136.228 64.3431 135.942 64.3973 135.65C64.8143 133.393 65.4467 131.164 66.3981 129.069C67.3439 126.987 68.6143 125.044 70.2435 123.428C74.0217 119.679 79.8387 117.799 84.7975 120.316C89.4162 122.661 92.2818 127.725 94.128 132.357C95.3774 135.491 96.3693 138.747 97.1353 142.053C99.4082 141.97 101.67 141.77 103.897 141.331C101.522 129.646 96.4502 116.874 85.0736 113.213Z" fill="#00171F"/>
<path d="M59.5993 124.052C69.7006 126.744 75.0707 135.462 78.6375 144.631C76.4091 145.011 74.1784 145.373 71.9419 145.7C69.4649 139.491 65.903 133.685 59.5636 131.089C50.3287 127.308 42.4663 134.44 39.6258 142.675C37.3472 142.573 35.0929 142.143 32.833 141.82C36.076 130.302 46.9757 120.689 59.5993 124.052Z" fill="#00171F"/>
<path d="M90.2467 150.797C90.169 148.931 88.6443 147.46 87.0847 146.426C83.896 144.313 80.0887 143.14 76.2595 143.091C74.8959 143.074 73.3866 143.263 72.4789 144.279C71.1777 145.733 71.7793 147.998 72.4522 149.828C78.6263 150.863 84.0053 151.286 90.2467 150.797Z" fill="#04F06A"/>
<path d="M114 146.693C113.922 144.827 112.398 143.356 110.838 142.322C107.649 140.209 103.842 139.036 100.014 138.988C98.6501 138.971 97.1408 139.16 96.2331 140.176C94.9318 141.63 95.5335 143.895 96.2063 145.725C102.38 146.759 107.759 147.182 114 146.693Z" fill="#04F06A"/>
<path d="M25.9784 80.8174C22.4375 80.8174 22.4318 86.3029 25.9784 86.3029C29.5193 86.3029 29.525 80.8174 25.9784 80.8174Z" fill="#00171F"/>
<path d="M58.2836 79.8696C54.7426 79.8696 54.737 85.3551 58.2836 85.3551C61.8245 85.3551 61.8301 79.8696 58.2836 79.8696Z" fill="#00171F"/>
<path d="M35.1521 91.0776C40.353 91.1036 45.5538 91.1288 50.7547 91.1548" stroke="#00171F" stroke-width="3" stroke-miterlimit="10" stroke-linecap="round"/>
<path d="M80.1365 1H19.6436V54.0404H80.1365V1Z" fill="#FFFFFA" stroke="#00171F" stroke-width="0.75" stroke-miterlimit="10"/>
<path d="M34.6509 26.3347C33.5351 24.9125 31.8979 23.5718 31.1173 21.9308C29.9958 19.5731 31.0752 16.928 33.9197 16.6721C34.1206 16.6544 34.3068 16.6148 34.4841 16.5648C34.021 14.8237 33.6404 13.0383 33.4501 11.244V11.2432C27.1642 12.0883 23.0986 18.2921 26.1715 24.3104C27.6646 27.2339 30.3764 29.3309 32.0056 32.1899C32.9521 33.851 34.4242 36.4671 32.4307 37.9184C30.8849 39.0444 28.4663 38.8442 26.6776 38.2315C26.2266 39.9734 25.6047 41.6628 24.8508 43.2957C30.6153 44.994 38.9805 43.6468 38.9797 36.2298C38.9805 32.6379 36.8016 29.0759 34.6509 26.3347Z" fill="#04F06A"/>
<path d="M61.2725 20.6183C60.1762 16.8133 56.0312 12.0914 51.7542 12.0656C46.4975 12.0333 44.5954 17.384 43.6918 21.5926C42.8659 25.4395 42.6189 29.4422 43.1687 33.3441C44.108 40.0112 49.8101 44.0261 55.87 39.6432C61.7373 35.3991 63.1924 27.2806 61.2725 20.6183ZM52.9947 34.9762C49.0408 38.0716 48.4651 32.7791 48.3898 29.8975C48.3185 27.1693 47.7639 18.3356 51.0206 17.3622C55.2085 16.1103 56.3324 22.5022 56.5154 25.2603C56.747 28.7457 55.8943 32.7056 52.9947 34.9762Z" fill="#04F06A"/>
<path d="M73.8999 32.532C73.5784 29.3381 72.2116 26.3104 71.1201 23.3214C70.5776 21.8363 69.6132 20.067 69.5274 18.4631C69.4027 16.1288 71.2837 16.2854 73.125 16.2547C73.2553 16.2523 73.3719 16.2289 73.4926 16.2119C73.2343 14.4031 72.9096 12.6007 72.6553 10.791C67.4942 11.0227 63.0415 13.6492 64.12 19.5536C64.6682 22.5554 66.0869 25.4766 67.1136 28.3396C67.7274 30.0516 70.1735 37.9941 65.8002 36.8746C65.7646 36.8657 65.7306 36.8608 65.6958 36.8536C65.3767 38.6616 64.8472 40.4091 64.2715 42.1445C64.2941 42.151 64.3144 42.1591 64.337 42.1647C70.2909 43.6878 74.4529 38.0167 73.8999 32.532Z" fill="#04F06A"/>
<path d="M73.3663 12.994C70.6432 12.2207 67.9079 14.8481 67.4836 17.6384C67.0593 20.4288 68.2334 23.1893 69.3954 25.7625C70.5574 28.3366 71.7622 31.0745 71.4003 33.8738C71.0173 36.8393 68.7144 39.4674 65.8188 40.2463" stroke="#FFFFFA" stroke-miterlimit="10"/>
<path d="M47.317 36.2656C49.1478 38.6791 53.0345 38.7218 55.5211 36.9864C58.0078 35.251 59.3017 32.254 59.9487 29.2982C61.2005 23.5818 59.1179 13.0378 50.9478 15.6183C43.8854 17.8485 43.5421 31.2887 47.317 36.2656Z" stroke="#FFFFFA" stroke-miterlimit="10"/>
<path d="M34.8376 13.2129C31.01 13.4373 27.7258 17.0954 27.925 20.9124C28.0739 23.7577 29.8618 26.2664 31.9169 28.2463C33.525 29.7953 35.4052 31.2312 36.1882 33.3194C37.2408 36.1267 35.8262 39.5015 33.2934 41.1158C30.7606 42.7301 27.3946 42.7148 24.6423 41.5097" stroke="#FFFFFA" stroke-miterlimit="10"/>
</svg>
