<svg width="152" height="266" viewBox="0 0 152 266" fill="none" xmlns="http://www.w3.org/2000/svg">
<path d="M63.692 97.0532H47.8513V182.135H63.692V97.0532Z" fill="#00171F"/>
<path d="M89.7786 97.0532H73.938V182.135H89.7786V97.0532Z" fill="#00171F"/>
<path d="M63.692 97.0532H47.8513V109.161H63.692V97.0532Z" fill="#1E91D6"/>
<path d="M63.692 122.81H47.8513V141.918H63.692V122.81Z" fill="#1E91D6"/>
<path d="M63.692 155.003H47.8513V178.842H63.692V155.003Z" fill="#1E91D6"/>
<path d="M89.7786 122.81H73.938V141.918H89.7786V122.81Z" fill="#1E91D6"/>
<path d="M89.7786 155.003H73.938V178.842H89.7786V155.003Z" fill="#1E91D6"/>
<path d="M89.7786 97.0532H73.938V109.161H89.7786V97.0532Z" fill="#1E91D6"/>
<path d="M98.7854 179.662H40.097V182.452H98.7854V179.662Z" fill="#00171F"/>
<path d="M73.8129 85.5167C73.7847 83.6411 74.4275 81.7521 75.8244 80.3136C77.4808 78.6082 80.0725 77.8724 82.3778 78.4539C82.2419 73.5924 82.2517 68.4371 84.759 64.2685C87.2993 60.0448 92.5832 58.1007 97.0713 60.1305C100.3 47.8377 100.886 35.1508 109.537 24.9209C116.751 16.3891 129.344 11.5716 139.503 16.2226C148.004 20.1145 152.923 30.086 151.856 39.3745C150.788 48.6629 144.332 56.8899 136.014 61.1576C127.694 65.4254 117.769 65.98 108.676 63.8008C112.344 68.6758 110.761 76.3274 105.97 80.1067C101.18 83.886 94.1135 83.9766 88.6778 81.2048C92.6407 88.6116 85.8155 95.8947 77.9607 92.2133C75.3273 90.9781 73.8533 88.2615 73.8129 85.5167Z" fill="#FFFFFA"/>
<path d="M111.356 19.8122C105.523 9.22728 91.8362 3.20026 80.4813 7.33947C69.1263 11.4787 62.5765 26.2248 68.2277 36.9089C63.6392 36.1425 58.6907 38.4821 56.3708 42.516C54.0508 46.5499 54.5172 52.0028 57.4885 55.5837C52.6478 54.51 47.2537 57.7519 45.9303 62.5302C45.257 64.9615 45.6193 67.2619 46.9183 69.4019C48.227 71.5566 50.4246 72.2201 51.8006 74.0737C49.7892 74.4801 48.0091 75.9688 47.3419 77.9092C46.7126 79.7395 47.1399 81.9077 48.4474 83.3241C48.5257 83.4098 48.609 83.4919 48.6935 83.5714C51.808 86.4876 58.3932 85.0858 58.5095 80.2806C58.5536 78.4516 57.4946 76.8148 56.4185 75.3163C61.5849 75.3261 66.5713 72.4209 68.2142 67.3304C69.245 64.1351 68.3905 60.5616 66.2395 58.1449C66.2787 58.1253 66.3178 58.1057 66.3558 58.0824C66.4194 58.1216 66.4843 58.1595 66.5468 58.2012C67.0744 58.5305 67.6045 58.8023 68.1897 59.0214C69.305 59.4401 70.5636 59.5821 71.7499 59.472C74.3379 59.2345 76.7999 58.1853 78.8101 56.5423C80.7457 54.9606 81.8328 52.6027 81.9602 50.1235C82.0103 49.149 81.8708 48.1439 81.5709 47.2074C88.9054 49.6742 97.2817 48.9103 104.02 45.0943C108.785 42.3973 112.849 37.9814 113.883 32.6057C114.72 28.2522 113.497 23.698 111.356 19.8122Z" fill="#FFFFFA"/>
<path d="M114.479 21.5042C105.805 27.4932 100.117 37.6043 99.5049 48.1268" stroke="#00171F" stroke-miterlimit="10"/>
<path d="M144.123 44.158C143.409 47.2039 141.453 49.9401 138.8 51.5978" stroke="#00171F" stroke-miterlimit="10"/>
<path d="M115.343 73.1299C113.679 78.3109 109.587 82.6546 104.513 84.6232" stroke="#00171F" stroke-miterlimit="10"/>
<path d="M72.3708 68.3347C71.4992 70.984 69.9872 73.4215 67.999 75.3778" stroke="#00171F" stroke-miterlimit="10"/>
<path d="M102.569 4.29986C98.1828 1.57099 92.8217 0.620971 87.6811 1.13271C82.5404 1.64445 77.6067 3.54939 73.1418 6.14726" stroke="#00171F" stroke-miterlimit="10"/>
<path d="M64.9039 15.9878C63.5352 17.8695 62.9182 20.2849 63.2181 22.5927" stroke="#00171F" stroke-miterlimit="10"/>
<path d="M67.9634 36.7241C69.3333 37.8345 70.7033 38.9449 72.0732 40.0553" stroke="#00171F" stroke-miterlimit="10"/>
<path d="M98.3677 59.106C98.4693 60.1062 98.9321 61.066 99.6495 61.77" stroke="#00171F" stroke-miterlimit="10"/>
<mask id="mask0_9_257" style="mask-type:luminance" maskUnits="userSpaceOnUse" x="0" y="164" width="144" height="102">
<path d="M0 236.28C0 196.667 32.1122 164.554 71.7255 164.554C111.339 164.554 143.452 196.667 143.452 236.28C143.452 246.373 141.324 256.43 137.188 265.639" fill="white"/>
</mask>
<g mask="url(#mask0_9_257)">
<path d="M143.172 230.122C140.046 193.395 109.264 164.554 71.7266 164.554C34.1897 164.554 3.40702 193.395 0.281494 230.122H143.172Z" fill="#1E91D6"/>
</g>
<mask id="mask1_9_257" style="mask-type:luminance" maskUnits="userSpaceOnUse" x="0" y="164" width="144" height="102">
<path d="M0 236.28C0 196.667 32.1122 164.554 71.7255 164.554C111.339 164.554 143.452 196.667 143.452 236.28C143.452 246.373 141.324 256.43 137.188 265.639" fill="white"/>
</mask>
<g mask="url(#mask1_9_257)">
<path d="M51.3061 167.951C51.655 167.556 52.1337 167.303 52.6062 167.07C55.7514 165.511 58.6822 163.393 62.4382 163.792C64.2917 163.989 66.002 164.84 67.667 165.676C69.4336 166.564 71.2014 167.453 72.968 168.34C74.0025 168.861 75.0542 169.386 76.194 169.589C77.5872 169.838 80.5903 170.46 79.1885 172.663C78.6498 173.51 77.6031 173.507 77.0681 174.14C76.2576 175.098 76.6592 176.516 77.0032 177.622C77.3937 178.876 77.7892 180.331 77.0607 181.425C76.5686 182.165 75.6871 182.525 74.9832 183.067C73.8214 183.961 72.6681 185.82 72.3278 187.251C71.9482 188.844 72.6669 189.971 71.1635 191.201C69.2206 192.791 66.7219 193.483 64.4081 194.457C62.0942 195.432 59.751 196.91 58.9063 199.274C58.5451 200.282 58.3284 201.578 57.3123 201.917C56.5434 202.174 55.6865 201.666 55.2763 200.967C54.8662 200.268 54.794 199.428 54.7315 198.62C54.6373 197.407 54.5442 196.193 54.45 194.979C54.4059 194.404 54.3643 193.804 54.581 193.27C54.7511 192.85 55.067 192.507 55.3045 192.122C55.755 191.389 55.9166 190.52 56.0697 189.674C56.4614 187.506 57.2058 185.771 57.7408 183.712C57.9734 182.816 57.9207 181.8 57.3833 181.046C56.8103 180.241 55.6901 179.637 55.8052 178.656C55.8383 178.372 55.9815 178.114 56.0439 177.834C56.2815 176.779 55.2984 175.795 54.2578 175.504C53.2171 175.212 52.108 175.376 51.0306 175.283C50.6731 175.253 50.2863 175.177 50.0524 174.905C49.3326 174.069 50.88 173.29 49.6484 172.755C50.5226 171.277 50.1394 169.272 51.3061 167.951Z" fill="#04F06A"/>
<path d="M26.3778 230.122C27.094 229.469 28.0134 228.936 28.7749 228.325C31.003 226.54 32.0192 223.775 33.8274 221.639C34.5166 220.825 35.2843 220.109 36.3102 219.759C37.2222 219.448 38.4673 219.836 39.2717 219.291C40.8289 218.238 40.4763 215.737 42.7498 215.164C44.0634 214.834 45.5986 215.514 46.7359 214.779C47.648 214.189 47.8561 212.958 47.899 211.872C47.959 210.378 47.8684 208.878 47.6309 207.401C47.3468 205.634 46.7396 203.743 45.2301 202.78C44.5408 202.34 43.7194 202.136 43.0436 201.676C42.3543 201.205 41.8597 200.498 41.1986 199.988C40.0515 199.106 38.411 198.914 37.0913 199.507C35.7715 200.102 34.8276 201.458 34.7284 202.902C34.6501 204.051 35.0639 205.199 34.9317 206.342C34.7896 207.563 34.0478 208.62 33.3291 209.616C32.7341 210.441 31.6947 211.263 30.9528 210.131C30.2954 209.129 31.3287 208.6 31.4523 207.75C31.8098 205.271 29.136 204.468 28.519 202.338C27.9693 200.44 29.5596 198.65 31.0128 197.311C31.8135 196.573 33.4895 194.326 34.6085 194.314C35.8584 194.299 36.3457 195.985 38.0241 195.214C39.7638 194.416 40.1176 193.067 40.7408 191.475C41.2513 190.172 42.6934 188.387 43.7794 190.625C44.0144 191.11 44.1295 191.644 44.3511 192.136C45.1089 193.827 47.3456 194.268 48.8368 193.242C51.9904 191.071 49.4513 186.699 46.9318 185.13C44.8653 183.842 42.3788 183.445 39.9597 183.17C37.4549 182.884 34.9684 182.647 32.6215 181.661C30.5476 180.791 29.0993 179.698 26.75 179.463C22.2998 179.018 18.8609 179.572 15.4415 182.531C14.0275 183.754 12.6074 185.07 11.863 186.785C10.8334 189.156 11.3953 192.573 9.62997 194.592C8.91868 195.405 7.96866 195.855 7.24512 196.726C6.16778 198.021 5.22877 199.499 4.40607 200.965C1.3687 206.379 0.293803 212.651 -0.464011 218.811C-0.891276 222.281 -1.47526 226.379 -1.05656 230.117H26.3778V230.122Z" fill="#04F06A"/>
<path d="M76.5723 230.123H95.6719C95.454 229.266 95.263 228.36 94.4893 228.265C93.8661 228.188 93.3654 228.778 92.7569 228.934C91.4311 229.273 90.5851 227.628 89.6449 226.632C88.2076 225.11 85.7934 224.943 83.7783 225.512C83.04 225.72 82.3018 226.015 81.5366 225.967C80.6809 225.915 79.8876 225.435 79.0294 225.428C78.1711 225.42 77.3925 226.174 77.8737 226.884C77.439 227.964 77.0057 229.044 76.5723 230.123Z" fill="#04F06A"/>
<path d="M97.8584 230.123H101.239C100.978 229.914 100.72 229.701 100.454 229.507C99.6642 228.926 98.511 228.542 97.752 229.16C97.8266 229.454 97.8621 229.791 97.8584 230.123Z" fill="#04F06A"/>
<path d="M78.8986 225.567C80.1278 225.662 81.8319 225.093 82.5236 224.042C83.6034 222.397 82.5359 221.511 84.6257 220.632C86.1964 219.971 88.3046 219.738 89.8765 220.485C90.6062 220.832 91.2293 221.384 91.9773 221.687C93.1563 222.167 94.4846 221.979 95.7529 221.877C97.0212 221.775 98.4157 221.806 99.4024 222.612C100.279 223.327 100.181 224.408 101.131 225.041C102.325 225.836 103.937 225.96 105.238 225.356C106.351 225.61 106.606 227.256 105.895 228.15C105.183 229.044 103.951 229.314 102.811 229.39C101.568 229.474 100.316 229.393 99.0939 229.153C99.2494 229.499 99.4539 229.818 99.6779 230.122H117.039C116.94 229.723 116.879 229.314 116.902 228.901C117.667 229.197 118.38 229.643 119.075 230.122H146.451C146.714 228.41 146.932 226.691 147.066 224.965C147.169 223.65 147.232 222.297 146.831 221.04C146.432 219.79 145.602 218.717 145.143 217.488C144.509 215.788 144.628 213.911 144.748 212.1C145.087 207.023 145.269 201.521 142.406 197.316C141.245 195.612 139.66 194.251 138.093 192.911C134.562 189.892 130.938 186.838 126.736 184.788C122.704 182.821 118.43 182.417 114.059 182.436C113.025 182.441 112.011 183.031 111.498 183.93C110.364 185.913 111.131 188.151 109.523 190.031C108.277 191.486 106.891 191.831 105.158 192.341C103.191 192.919 102.068 194.241 100.895 192.137C99.9986 190.529 100.007 189.311 97.6934 189.764C96.0921 190.077 94.8017 191.247 93.7403 192.486C92.2503 194.227 91.0322 196.201 90.1471 198.315C89.6108 199.593 89.2387 201.192 90.1152 202.266C90.8633 203.183 92.2258 203.325 93.1318 204.087C93.9949 204.815 94.3218 206.112 93.9055 207.162C93.4893 208.211 92.3605 208.931 91.2342 208.867C89.7614 208.784 88.3033 207.529 86.9689 208.158C85.348 208.922 85.856 211.455 84.7946 212.9C84.2449 213.649 83.328 214.019 82.6044 214.601C81.008 215.888 81.5393 217.964 80.2514 219.238C78.9023 220.572 76.0657 220.533 76.2358 223.164C76.3191 224.465 77.5984 225.465 78.8986 225.567Z" fill="#04F06A"/>
<path d="M81.5966 207.126C81.5256 206.208 81.1449 205.128 80.2414 204.947C80.0884 204.916 79.9219 204.918 79.7847 204.994C79.6036 205.094 79.5105 205.303 79.4738 205.506C79.2473 206.741 80.5891 207.798 80.5352 209.052C80.507 209.701 80.1067 210.269 79.7003 210.776C79.2938 211.283 78.8494 211.797 78.7062 212.431C78.5617 213.064 78.8482 213.851 79.4774 214.014C79.8986 214.123 80.332 213.931 80.7237 213.743C82.0729 213.098 83.897 212.732 83.3975 210.952C83.198 210.243 82.2137 209.868 81.8966 209.187C81.6064 208.559 81.6481 207.797 81.5966 207.126Z" fill="#04F06A"/>
<path d="M77.973 208.497C77.9032 209.144 77.8346 209.789 77.7661 210.434C77.7208 210.858 77.662 211.31 77.378 211.629C77.094 211.946 76.499 212.011 76.2798 211.646C76.1856 211.488 76.1831 211.293 76.1892 211.108C76.2211 210.151 76.4218 209.199 76.7781 208.309C77.1919 208.384 77.6057 208.462 78.0195 208.538" fill="#04F06A"/>
<path d="M70.6911 196.482C70.3654 196.768 70.6017 197.359 71.0045 197.518C71.4061 197.677 71.859 197.55 72.2716 197.42C72.765 197.266 73.2583 197.112 73.7517 196.957C74.0125 196.875 74.321 196.737 74.343 196.465C74.3528 196.343 74.2977 196.225 74.239 196.116C73.726 195.18 72.6866 194.438 71.6362 194.63C70.5858 194.822 69.8794 196.256 70.5944 197.048" fill="#04F06A"/>
<path d="M39.1664 172.018C37.8846 172.447 36.7962 173.421 36.2294 174.648C36.1388 174.845 36.058 175.059 36.0861 175.275C36.1522 175.783 36.7595 176.026 37.2712 176.024C37.783 176.021 38.3131 175.881 38.7954 176.05C40.2315 176.553 42.003 176.942 43.1134 178.084C43.3778 178.356 43.6141 178.661 43.9275 178.873C44.5763 179.31 45.437 179.269 46.1948 179.076C46.3748 179.031 46.5633 178.969 46.6784 178.824C46.8939 178.549 46.7372 178.15 46.556 177.852C45.7541 176.532 44.5739 175.445 43.1929 174.754C42.8563 174.585 42.4743 174.405 42.347 174.052C42.107 173.383 42.1327 172.481 41.0701 172.904C40.6342 173.078 40.2988 173.448 39.863 173.622C39.4271 173.796 38.782 173.628 38.7489 173.159C38.7391 173.023 38.7856 172.886 38.7575 172.753C38.7293 172.619 38.5665 172.5 38.4612 172.587" fill="#04F06A"/>
<path d="M48.2896 172.564C48.3447 172.46 48.3863 172.352 48.4121 172.248C48.5871 171.527 48.2921 170.765 47.855 170.166C47.2208 169.295 43.8003 166.89 44.2704 169.785C44.3989 170.576 45.7958 171.133 46.2109 171.803C46.5218 172.306 45.9513 173.032 46.7642 173.345C47.3629 173.575 48.0044 173.103 48.2896 172.564Z" fill="#04F06A"/>
</g>
</svg>
