<svg width="26" height="26" viewBox="0 0 26 26" fill="none" xmlns="http://www.w3.org/2000/svg">
<path d="M4.33331 7.58333H21.6666M10.8333 11.9167V18.4167M15.1666 11.9167V18.4167M5.41665 7.58333L6.49998 20.5833C6.49998 21.158 6.72825 21.7091 7.13458 22.1154C7.54091 22.5217 8.09201 22.75 8.66665 22.75H17.3333C17.9079 22.75 18.459 22.5217 18.8654 22.1154C19.2717 21.7091 19.5 21.158 19.5 20.5833L20.5833 7.58333M9.74998 7.58333V4.33333C9.74998 4.04602 9.86412 3.77047 10.0673 3.5673C10.2704 3.36414 10.546 3.25 10.8333 3.25H15.1666C15.454 3.25 15.7295 3.36414 15.9327 3.5673C16.1358 3.77047 16.25 4.04602 16.25 4.33333V7.58333" stroke="black" stroke-width="1.5" stroke-linecap="round" stroke-linejoin="round"/>
</svg>
