<svg width="26" height="26" viewBox="0 0 26 26" fill="none" xmlns="http://www.w3.org/2000/svg">
<path d="M5.41669 18.4167C5.41669 18.9913 5.64496 19.5424 6.05129 19.9487C6.45762 20.3551 7.00872 20.5833 7.58335 20.5833C8.15799 20.5833 8.70909 20.3551 9.11542 19.9487C9.52175 19.5424 9.75002 18.9913 9.75002 18.4167C9.75002 17.842 9.52175 17.2909 9.11542 16.8846C8.70909 16.4783 8.15799 16.25 7.58335 16.25C7.00872 16.25 6.45762 16.4783 6.05129 16.8846C5.64496 17.2909 5.41669 17.842 5.41669 18.4167ZM16.25 18.4167C16.25 18.9913 16.4783 19.5424 16.8846 19.9487C17.291 20.3551 17.8421 20.5833 18.4167 20.5833C18.9913 20.5833 19.5424 20.3551 19.9488 19.9487C20.3551 19.5424 20.5834 18.9913 20.5834 18.4167C20.5834 17.842 20.3551 17.2909 19.9488 16.8846C19.5424 16.4783 18.9913 16.25 18.4167 16.25C17.8421 16.25 17.291 16.4783 16.8846 16.8846C16.4783 17.2909 16.25 17.842 16.25 18.4167Z" stroke="black" stroke-width="1.5" stroke-linecap="round" stroke-linejoin="round"/>
<path d="M5.41667 18.4167H3.25V11.9167M3.25 11.9167L5.41667 6.5H15.1667L19.5 11.9167M3.25 11.9167H19.5M19.5 11.9167H20.5833C21.158 11.9167 21.7091 12.1449 22.1154 12.5513C22.5217 12.9576 22.75 13.5087 22.75 14.0833V18.4167H20.5833M16.25 18.4167H9.75M13 11.9167V6.5" stroke="black" stroke-width="1.5" stroke-linecap="round" stroke-linejoin="round"/>
</svg>
