<svg width="94" height="191" viewBox="0 0 94 191" fill="none" xmlns="http://www.w3.org/2000/svg">
<g clip-path="url(#clip0_1_213)">
<path d="M0 97.0708H45.4333V142.622H0V97.0708Z" fill="#1E91D6"/>
<path d="M11.5933 104.296V122.202C11.5933 131.627 16.2933 135.082 22.5599 135.082C29.1399 135.082 33.8399 131.313 33.8399 121.888V103.982H30.0799V122.202C30.0799 128.799 26.9466 131.941 22.5599 131.941C18.4866 131.941 15.3533 129.114 15.3533 122.202V104.296H11.5933Z" fill="white"/>
<path d="M48.2534 97.0708H93.6868V142.622H48.2534V97.0708Z" fill="#1E91D6"/>
<path d="M63.1333 135.158V122.278C63.1333 117.252 63.1333 113.482 62.82 109.712C64.3867 113.168 66.2667 116.623 68.46 119.765L78.1733 135.158H82.2467V105H78.8V117.88C78.8 122.592 78.8 126.362 79.4267 130.446C78.1733 127.304 76.2933 124.163 74.1 120.393L64.3867 105H60V135.472L63.1333 135.158Z" fill="white"/>
<path d="M48 145H93.4333V190.551H48V145Z" fill="#1E91D6"/>
<path d="M78.6466 155.187C76.7666 153.617 73.9466 152.674 69.8733 152.674C66.7399 152.674 64.2333 152.988 62.3533 153.303V183.461H66.1133V171.209C67.0533 171.523 67.9933 171.523 69.2466 171.523C73.0066 171.523 76.4533 170.266 78.3333 168.067C79.8999 166.497 80.8399 164.298 80.8399 161.47C81.4666 158.957 80.5266 156.758 78.6466 155.187Z" fill="white"/>
<path d="M69.8733 168.382C68.62 168.382 67.3667 168.382 66.4267 168.067V156.444C67.0533 156.444 68.3067 156.13 70.1867 156.13C74.5733 156.13 77.3933 158.015 77.3933 162.099C77.3933 166.183 74.5733 168.382 69.8733 168.382ZM0 145.449H45.4333V191H0V145.449Z" fill="#1E91D6"/>
<path d="M31.96 156.444C29.4534 153.931 25.38 152.674 19.74 152.674C16.6067 152.674 13.7867 152.988 11.28 153.303V183.461C13.16 183.775 15.6667 183.775 18.4867 183.775C24.44 183.775 29.14 182.204 31.96 179.377C34.78 176.549 36.3467 172.465 36.3467 167.753C36.3467 162.413 34.78 158.957 31.96 156.444Z" fill="white"/>
<path d="M19.4267 180.319C17.86 180.319 16.2933 180.319 15.3533 180.005V156.13C16.2933 155.816 17.86 155.502 20.0533 155.502C28.5133 155.502 32.2733 159.9 32.2733 167.125C32.2733 175.607 27.5733 180.633 19.4267 180.319ZM0 0H94V94.2434H0V0Z" fill="#1E91D6"/>
<path d="M80.5268 49.0066C79.2734 50.8915 77.3934 52.4622 76.4534 54.6612C76.4534 53.0905 76.7668 51.2056 76.1401 49.949C75.2001 46.8076 74.2601 43.9803 73.9468 40.2105V38.954C74.5734 42.4096 78.0201 44.9227 77.7068 48.6924C77.7068 49.6349 77.3934 50.5773 77.0801 51.2056V50.8915C77.7068 49.0066 77.7068 47.1217 78.6468 45.2369C79.9001 42.7237 81.1534 40.2105 80.5268 37.0691C83.0334 40.8388 82.4068 45.551 80.5268 49.0066Z" fill="white"/>
<path d="M78.6468 29.5297C80.8401 32.6711 81.4668 37.3833 79.5868 40.8389C78.9601 42.4096 78.6468 43.9803 78.3334 45.551C78.3334 45.2369 78.3334 44.9227 78.0201 44.6086C77.3934 41.153 73.9468 38.6398 72.6934 35.8125C72.0668 34.8701 72.0668 33.9277 71.7534 32.357C73.0068 34.8701 76.4534 36.1267 77.7067 39.2681C78.3334 39.8964 78.0201 40.8389 78.3334 41.7813C77.7068 38.6399 78.0201 35.8125 78.3334 32.9852C78.3334 31.4145 78.0201 29.8438 77.3934 28.5872C77.7068 28.2731 78.0201 28.9014 78.6468 29.5297Z" fill="white"/>
<path d="M77.08 28.9014C77.7067 31.4146 76.7667 33.9277 77.3934 36.755C75.8267 33.9277 73.0067 32.6712 70.8134 30.4722C69.56 29.2156 68.9333 27.3307 68.9333 25.76C70.1867 28.5873 73.32 29.2156 75.2 31.7287C75.8267 32.357 75.8267 32.9853 76.4533 33.6136C75.5133 31.4146 74.8867 28.9014 74.5733 26.0741L72.6934 23.2468C74.5734 23.8751 76.4534 26.3883 77.08 28.9014Z" fill="white"/>
<path d="M70.5001 22.9326C72.3801 24.8174 73.0067 26.7023 73.6334 28.9013L73.9468 29.5296C71.4401 27.6447 68.9334 24.8174 67.0534 22.3043L65.1734 20.1053C66.7401 20.7336 68.9334 21.3618 70.5001 22.9326ZM35.7201 20.7336C39.1668 18.8487 43.2401 18.2204 47.0001 17.9062C56.4001 17.9062 65.4868 23.5609 69.5601 32.0428C72.0668 37.0691 73.0067 43.9803 71.4401 49.6349C69.5601 56.5461 63.9201 63.1431 57.3401 65.9704C49.8201 69.426 39.4801 68.7977 32.9001 64.0855C23.8134 58.1168 20.0534 47.1217 22.8734 36.4408C24.4401 30.1579 29.4534 23.5609 35.7201 20.7336ZM28.5134 20.7336C26.6334 22.3043 25.3801 24.5033 23.8134 26.3882C22.5601 27.6447 20.9934 28.9013 19.4268 30.1579C20.3668 28.273 20.3668 26.3882 21.6201 25.1316C23.1868 22.3043 26.0068 21.676 28.5134 20.7336Z" fill="white"/>
<path d="M18.1732 26.3882C18.7999 25.1316 20.0532 24.5034 21.6199 24.1892C19.1132 26.0741 19.4265 28.9014 18.4865 31.7287C18.1732 32.357 17.8599 33.6136 17.5465 34.2418C18.1732 33.2994 18.7999 32.357 19.4265 31.1004C21.3065 29.2155 23.8132 28.2731 24.7532 25.7599C24.7532 29.2155 21.9332 31.7287 19.1132 33.6136C17.8599 34.556 16.9199 35.4984 16.2932 37.0691V34.556C16.6065 31.7287 16.2932 28.2731 18.1732 26.3882Z" fill="white"/>
<path d="M13.4733 36.1266C13.4733 32.9852 14.7267 30.7862 16.2933 28.5872C14.4133 31.4145 15.98 35.1842 15.6667 38.3256L15.3533 41.7812C15.3533 41.1529 15.3533 41.1529 15.6667 40.5247C16.2933 37.6974 18.4867 35.8125 20.3667 33.9276C20.9933 33.2993 20.9933 32.9852 21.3067 32.3569C20.9933 33.6135 20.68 35.1842 20.0533 36.4408C18.4867 39.5822 15.3533 42.0954 15.04 45.551C15.3533 42.4095 12.8467 39.5822 13.4733 36.1266Z" fill="white"/>
<path d="M11.9065 40.5246L12.8465 37.6973C12.2199 41.467 14.7265 44.6085 15.6666 47.7499L16.6066 51.5196C15.3532 48.064 17.2332 44.6085 19.1132 41.467C19.7399 40.8387 19.7399 39.8963 20.0532 38.9538C20.3666 40.5246 19.7399 42.4094 19.4265 43.9802C18.7999 45.865 18.1732 48.3782 17.5465 50.2631C16.9199 51.5196 17.2332 53.0904 17.5465 54.3469C16.2932 51.8338 13.4732 49.6348 12.8465 46.8075C11.9065 45.2367 11.2799 42.7236 11.9065 40.5246Z" fill="white"/>
<path d="M11.5933 48.0641C11.9066 52.148 16.2933 54.347 18.4866 58.1168C19.1133 58.7451 19.4266 59.3734 20.3666 60.0016C20.3666 59.3734 19.7399 59.3734 19.7399 58.7451C19.1133 57.1743 18.7999 55.6036 19.1133 54.0329C19.4266 52.148 20.0533 49.949 19.7399 47.75C21.6199 51.5197 20.9933 56.5461 21.9333 60.6299C22.2466 61.5724 22.5599 62.5148 23.1866 63.1431C19.4266 60.6299 14.4133 58.4309 12.8466 53.4046C11.5933 51.8339 11.5933 49.949 11.5933 48.0641Z" fill="white"/>
<path d="M14.1001 57.4885C15.9801 62.2007 21.6201 62.5149 24.7534 65.3422C25.0668 65.9705 26.0068 66.5987 26.6334 66.5987C26.0068 65.9705 24.7534 65.028 24.4401 64.0856C22.5601 61.2583 23.1868 57.1744 21.6201 54.033C22.8734 55.9178 24.1268 57.4885 25.0668 59.6876C26.3201 62.829 26.9468 66.2846 29.7668 68.4836C26.6334 67.5412 22.8734 67.8553 20.0534 65.9705C17.2334 64.0856 14.4134 61.2583 14.1001 57.4885Z" fill="white"/>
<path d="M19.4268 66.5987C22.8734 70.3685 28.2001 69.1119 32.5868 70.0543C33.2134 70.0543 33.8401 70.3684 34.4668 70.3684C33.8401 70.0543 33.2134 70.0543 32.5868 69.7402C29.1401 68.4836 28.5134 65.028 26.6334 62.2007C29.1401 63.7714 31.0201 65.9704 33.2134 68.1694C34.7801 69.426 36.6601 70.0543 38.8534 70.6826C38.2268 70.9967 37.6001 70.6826 36.9734 70.9967C33.2134 71.9392 29.4534 73.1958 25.3801 71.9392C23.1868 70.6826 20.6801 68.7977 19.4268 66.5987Z" fill="white"/>
<path d="M64.5467 75.0807C60.7867 76.3373 57.0267 75.0807 53.8933 72.8817C52.64 72.2534 51.7 70.9968 50.1333 70.9968H48.5667C51.3867 72.2534 54.2067 74.1382 56.4 76.6514C55.7733 77.2797 55.46 77.5938 54.8333 77.908C52.64 75.3948 50.1333 73.1958 47 71.6251C46.3733 71.6251 46.06 72.2534 45.4333 72.2534C43.24 73.8241 40.7333 75.709 39.1667 78.2221L37.6 76.6514C40.1067 74.1382 42.6133 72.2534 45.4333 70.9968C42.6133 70.0544 40.7333 72.5675 38.54 73.8241C36.0333 75.709 32.5866 76.3373 29.4533 75.0807C27.5733 74.4524 26.0067 73.51 25.0667 71.9392C27.5733 73.8241 31.02 73.8241 33.84 72.5675C37.6 70.9968 41.36 69.1119 45.7467 70.0544C46.3733 70.0544 47 70.6826 47.6266 70.0544C51.0733 69.4261 54.52 69.7402 57.6533 71.3109L60.7867 72.5675C63.6067 73.51 66.74 73.1958 69.56 71.6251C67.68 73.51 66.4267 74.7665 64.5467 75.0807Z" fill="white"/>
<path d="M68.62 71.3108C64.2333 72.8815 60.16 70.9967 56.0866 70.3684H55.46C57.34 69.7401 59.22 69.4259 60.7866 67.8552C62.98 65.6562 65.1733 63.4572 67.68 61.8865C65.8 64.3996 65.8 67.8552 62.6666 69.4259C62.04 70.0542 60.7866 70.0542 60.16 70.3684C61.4133 70.3684 62.04 69.7401 63.6066 69.7401C67.68 69.1118 72.38 69.7401 75.2 66.2845C73.6333 68.4835 70.8133 70.6825 68.62 71.3108Z" fill="white"/>
<path d="M70.8134 66.9129C68.9334 67.5412 66.4267 67.5412 64.2334 68.4836C67.6801 65.3422 67.6801 60.63 69.8734 57.1744C70.5001 56.232 71.1267 55.2895 72.0667 54.033C70.5001 56.8603 71.4401 60.63 69.5601 63.4573C68.9334 64.7139 67.9934 65.6563 67.0534 66.5987C67.3667 66.5987 67.6801 66.2846 67.9934 65.9705C70.8134 63.4573 73.9467 62.5149 77.0801 60.3159C78.3334 59.3734 79.2734 58.431 79.9001 56.8603C79.5867 61.5724 74.8867 65.6563 70.8134 66.9129Z" fill="white"/>
<path d="M76.1399 59.3735C74.2599 60.3159 72.6933 61.2583 71.4399 62.8291C73.9466 58.7452 72.6933 53.0906 74.2599 48.6925L74.8866 47.1218C74.5733 49.9491 75.8266 52.1481 75.5133 54.9754C75.5133 56.8603 74.8866 58.1169 73.9466 59.6876C75.1999 58.1169 75.8266 56.232 77.3933 54.9754C79.5866 53.0906 81.7799 50.5774 82.0933 47.7501C83.0333 52.4623 80.2133 56.8603 76.1399 59.3735Z" fill="white"/>
<path d="M57.3401 59.0591C58.2801 58.4309 59.2201 57.8026 59.8467 57.1743H59.2201C58.5934 57.1743 58.5934 56.546 58.5934 56.546L57.0267 54.9753V54.6611C57.0267 54.9753 56.7134 55.2894 56.4001 55.2894C56.4001 55.6036 56.4001 55.9177 56.7134 55.9177C57.3401 56.2318 57.9667 56.546 57.9667 56.8601C57.6534 57.4884 56.7134 57.8026 57.3401 58.745C57.6534 58.745 57.0267 58.745 57.3401 59.0591ZM48.5667 38.6397C48.8801 38.9539 49.1934 38.6397 49.1934 38.3256C49.5067 38.3256 49.8201 38.6397 49.8201 38.9539H50.4467C50.4467 38.0114 52.0134 38.3256 52.3267 37.069H52.0134C52.0134 37.069 51.7001 37.069 51.7001 36.7549L52.3267 36.1266C51.0734 35.4983 50.1334 34.87 48.8801 34.5559C48.2534 34.5559 47.9401 34.5559 47.3134 34.2417C47.6267 34.87 47.3134 36.1266 47.6267 36.7549L48.2534 37.069C48.5667 36.4407 48.8801 36.4407 49.1934 36.1266H49.8201V37.069C49.8201 38.3256 48.8801 38.3256 48.5667 38.6397ZM61.7267 47.1216C61.1001 49.0065 60.4734 50.5772 59.5334 51.8338C58.9067 52.4621 58.9067 53.0904 58.2801 53.4045L59.5334 54.347V54.0328C59.5334 54.0328 59.5334 53.7187 59.8467 53.7187C60.4734 53.7187 60.4734 54.347 60.4734 54.347C60.4734 54.9753 60.7867 54.9753 60.7867 55.6036C63.9201 52.148 65.4867 48.0641 65.8001 43.6661L66.1134 43.3519H62.3534C62.3534 43.9802 62.3534 44.9226 62.0401 45.5509L62.6667 46.1792V46.8075C62.0401 47.4358 62.0401 47.4358 61.7267 47.1216ZM58.5934 36.1266C57.9667 35.4983 57.6534 34.5559 56.7134 33.9276C55.4601 35.1841 54.2067 36.4407 53.2667 37.6973L53.5801 38.0115C53.5801 37.6973 53.8934 37.3832 53.8934 37.3832C54.2067 36.7549 54.5201 37.3832 55.1467 37.3832H57.0267C57.6534 37.6973 57.6534 38.0114 57.9667 38.3256V38.9539C57.9667 39.8963 58.5934 38.6397 58.9067 38.9539C59.2201 38.9539 59.5334 38.9539 59.5334 39.268C59.5334 39.8963 60.1601 39.5822 60.1601 39.8963C60.1601 40.2105 59.8467 40.2105 59.8467 40.2105C59.8467 40.8388 59.2201 40.8388 59.5334 41.1529C60.1601 41.1529 60.1601 40.5246 60.4734 40.2105C60.1601 39.5822 60.1601 38.9539 59.8467 38.3256C59.2201 38.3256 59.2201 37.6973 58.9067 37.6973C57.9667 37.069 58.9067 36.7549 58.5934 36.1266ZM47.6267 62.2006C48.5667 61.8864 49.5067 61.8865 50.7601 61.5723C50.4467 61.5723 50.1334 61.5723 50.1334 61.2582C49.5067 61.2582 49.5067 60.6299 49.1934 60.0016C49.1934 59.6874 49.1934 59.3733 49.5067 59.0591C49.1934 58.4309 48.5667 59.0591 47.9401 58.745C47.9401 58.745 47.6267 58.4309 47.3134 58.4309L47.6267 58.745V62.2006ZM48.5667 52.4621C48.8801 52.4621 48.5667 53.0904 48.8801 53.0904C49.5067 52.7763 49.8201 53.7187 50.1334 53.0904C50.1334 52.4621 50.7601 52.4621 51.0734 52.4621C51.7001 52.148 52.3267 51.8338 52.3267 50.8914C51.7001 50.8914 51.7001 51.2055 51.7001 51.5197C51.3867 51.8338 51.0734 50.8914 51.0734 51.2055V51.5197C50.4467 52.148 50.4467 51.2055 50.1334 51.5197V51.8338C49.8201 51.2055 49.5067 51.5197 49.1934 51.2055H48.5667C48.5667 51.5197 47.9401 51.2055 47.9401 51.5197C47.6267 51.5197 47.6267 52.148 47.3134 52.148C46.6867 52.148 46.6867 52.7763 46.3734 52.4621V52.7762H47.0001C47.3134 52.148 47.9401 52.7763 48.5667 52.4621ZM52.0134 47.7499C52.0134 48.0641 52.0134 48.3782 52.3267 48.3782C52.9534 48.3782 52.6401 49.0065 52.9534 49.0065C53.2667 49.0065 52.9534 48.6924 52.9534 48.3782C52.9534 47.7499 52.6401 47.7499 52.0134 47.7499C52.3267 47.7499 52.3267 47.7499 52.0134 47.7499C52.3267 47.4358 52.3267 47.4358 52.0134 47.7499ZM51.7001 30.1578C50.4467 29.5295 49.1934 29.5295 47.6267 29.5295V33.2993H47.9401C49.8201 33.6134 52.0134 34.2417 53.5801 35.4983V35.8124C54.2067 35.1841 54.8334 34.2417 55.4601 33.6134L56.0867 33.2993H55.7734C54.5201 31.7286 52.9534 30.7861 51.7001 30.1578ZM28.2001 44.2943L28.5134 46.4934C28.5134 47.1216 29.1401 48.3782 29.1401 49.0065C29.1401 48.6924 29.1401 48.3782 29.7667 48.3782C29.7667 48.0641 30.0801 47.7499 29.7667 47.7499C29.7667 47.1216 30.0801 46.4934 30.3934 45.8651C31.0201 45.8651 31.0201 45.2368 31.6467 44.9226C31.9601 44.9226 32.2734 45.5509 32.2734 45.5509C31.6467 44.9226 31.6467 44.2943 31.9601 43.6661H27.8867L28.2001 44.2943ZM50.7601 50.2631C51.0734 49.9489 51.7001 49.9489 51.7001 49.6348C51.3867 49.3207 51.3867 49.6348 50.7601 50.2631C50.4467 50.2631 50.4467 49.9489 50.7601 50.2631ZM58.5934 43.6661L59.2201 44.2943C59.8467 44.6085 59.2201 44.9226 59.8467 45.2368C60.4734 45.5509 60.4734 45.8651 60.4734 46.4934V46.1792C60.7867 45.5509 60.4734 44.6085 60.7867 44.2943C60.1601 43.9802 59.2201 43.9802 58.5934 43.6661ZM53.5801 52.7762C54.2067 52.7762 54.2067 53.4045 54.8334 53.4045C55.4601 53.0904 56.0867 53.4045 56.4001 53.0904C56.4001 52.4621 56.7134 52.4621 57.0267 51.8338C57.3401 52.148 57.3401 52.4621 57.3401 52.7762C57.6534 52.148 57.9667 52.148 58.2801 51.5197C58.9067 50.2631 59.8467 49.0065 60.1601 47.7499C59.8467 47.7499 59.5334 47.7499 59.2201 48.0641C58.9067 48.0641 58.5934 48.3782 57.9667 48.0641H57.6534C57.6534 48.3782 57.3401 48.6924 57.0267 48.3782C56.7134 48.3782 56.7134 48.0641 56.7134 47.7499V48.3782C56.4001 48.6924 56.4001 49.0065 56.0867 49.0065C55.7734 49.3207 55.4601 49.3207 55.1467 49.6348C55.1467 50.2631 54.5201 50.2631 54.2067 50.2631H54.8334C55.4601 50.2631 55.4601 49.6348 55.4601 49.6348C55.7734 49.6348 56.0867 49.3207 56.0867 49.6348C56.4001 49.9489 56.4001 50.2631 56.4001 50.8914C56.0867 51.2055 56.4001 51.5197 56.0867 52.148C56.0867 52.7763 55.4601 52.7763 55.4601 53.0904C55.1467 53.4045 54.8334 53.4045 54.8334 53.4045C53.8934 52.7763 52.9534 52.7762 51.7001 52.7762C51.7001 52.7762 51.3867 52.7763 51.7001 53.0904C52.6401 52.4621 52.9534 52.4621 53.5801 52.7762ZM46.0601 63.7713C41.0467 63.4572 36.6601 61.8864 33.2134 58.1167L30.7067 60.6299C34.4667 64.0855 39.1667 66.2845 44.1801 66.5986C44.8067 66.5986 46.0601 66.5986 46.6867 66.9128L46.3734 66.5986L46.0601 63.7713ZM41.0467 50.2631C42.3001 51.2055 43.8667 52.148 45.7467 52.148V51.2055C45.7467 50.8914 46.3734 50.8914 46.3734 50.8914C46.3734 50.8914 46.6867 50.5772 46.3734 50.5772C46.0601 50.5772 46.0601 49.9489 46.0601 49.9489C46.0601 49.9489 46.3734 49.9489 46.3734 49.6348C46.0601 49.3207 46.3734 49.0065 46.3734 49.0065L46.6867 48.6924C46.0601 49.0065 45.1201 48.6924 44.4934 48.0641L43.8667 47.4358L41.0467 50.2631ZM39.7934 46.1792C39.4801 46.1792 39.4801 46.1792 39.7934 46.1792H39.1667C39.1667 45.5509 38.5401 45.8651 38.2267 45.5509L39.1667 47.4358C39.4801 48.0641 39.7934 48.3782 40.1067 49.0065C40.4201 48.3782 40.7334 48.3782 41.0467 47.7499V47.1216C41.0467 46.8075 41.0467 46.4934 40.7334 46.4934C40.4201 46.4934 40.7334 47.1216 40.7334 47.1216H40.4201C40.1067 47.1216 39.7934 46.8075 39.7934 46.4934C40.1067 46.4934 39.7934 46.4934 39.7934 46.1792ZM42.3001 46.4934C42.3001 46.8075 41.9867 47.1216 41.6734 47.1216C41.9867 46.8075 42.3001 46.4934 42.6134 46.4934H42.3001ZM46.0601 58.745C42.9267 58.745 40.4201 57.4884 37.9134 55.6036C37.9134 55.9177 38.5401 56.2318 38.2267 56.2318C37.9134 56.546 37.6001 56.546 37.2867 56.546C36.6601 56.546 36.0334 57.1743 35.4067 57.1743C34.7801 57.4884 34.7801 56.546 34.1534 56.546C37.6001 59.6874 41.6734 61.2582 46.3734 61.5723L46.6867 61.8865V58.1167L46.0601 58.745Z" fill="#1E91D6"/>
<path d="M32.2733 57.1743C31.6466 56.8602 31.6466 56.546 31.02 55.9177C30.3933 55.9177 30.3933 55.2894 30.08 55.2894V54.6611V54.9753C29.4533 55.2894 29.4533 54.6611 29.14 54.347C28.5133 54.0328 28.8266 53.0904 28.2 53.4046C27.8866 53.4046 27.8866 53.0904 27.5733 53.0904C26.9466 53.0904 26.9466 52.4621 26.9466 52.4621V52.7763C26.32 52.7763 26.32 52.148 26.0066 52.148H25.6933C25.38 51.8338 25.0666 51.5197 25.0666 50.8914C24.44 50.2631 24.7533 49.6348 25.0666 49.0065C25.0666 49.0065 25.38 48.6924 25.38 48.3782C25.38 48.0641 26.0066 48.0641 26.0066 48.0641C26.0066 48.0641 26.32 48.0641 26.32 48.3782C26.6333 48.3782 26.9466 48.3782 26.9466 48.0641C27.26 47.75 27.5733 47.75 27.5733 47.75C27.8866 48.0641 27.8866 48.3782 28.2 48.3782L27.8866 48.0641C27.5733 46.8075 27.26 45.5509 27.26 44.2944V43.3519H22.8733C23.1866 47.4358 24.1266 50.8914 26.0066 54.347C26.6333 56.2319 28.2 57.4884 29.4533 59.0592L31.96 56.546L32.2733 57.1743ZM36.3466 27.6447C35.72 28.273 34.78 28.9013 34.1533 29.5296C35.0933 30.1578 36.0333 31.1003 36.66 31.7286V32.0427C38.54 30.1578 41.36 28.9013 43.8666 28.273C44.4933 28.273 45.12 27.9588 45.7466 28.273V24.8174C42.3 24.8174 39.48 26.074 36.3466 27.6447ZM33.2133 41.1529C33.2133 41.7812 33.2133 42.4095 32.9 43.0378C33.5266 42.7236 33.84 43.0378 34.4666 43.0378C34.1533 43.0378 34.4666 42.4095 34.1533 42.4095C34.1533 42.0953 34.1533 41.7812 34.4666 41.4671C34.4666 40.8388 35.0933 40.8388 35.0933 40.2105C35.0933 39.5822 35.72 39.8963 36.0333 39.5822C36.3466 39.5822 36.0333 39.268 36.0333 38.9539C36.3466 38.6398 36.66 38.6398 36.9733 38.3256L37.6 37.6973C38.2266 37.6973 38.2266 36.7549 39.1666 36.7549C38.2266 36.1266 37.2866 34.87 36.3466 34.2417C35.0933 36.1266 33.84 38.3256 33.2133 41.1529ZM33.84 46.1792C33.84 45.8651 33.5266 45.8651 33.5266 45.5509C33.84 44.9226 33.5266 44.2944 34.1533 44.2944C33.5266 44.2944 33.5266 44.6085 32.9 44.2944L33.2133 44.6085C33.2133 45.2368 33.5266 46.1792 33.5266 47.1217C33.5266 46.4934 33.5266 46.1792 33.84 46.1792Z" fill="#1E91D6"/>
<path d="M33.2134 30.4721L31.9601 32.357C29.7668 35.4984 28.5134 38.954 28.5134 42.7238H32.2734V42.4096C32.5868 38.954 33.8401 35.4984 36.3468 32.9853C35.0934 32.0428 34.1534 31.4146 33.2134 30.4721ZM43.5534 54.033C43.8668 53.7188 44.1801 53.4047 44.4934 53.4047C43.2401 53.7188 42.6134 52.7764 41.3601 52.4623C40.7334 52.1481 40.1068 51.834 39.7934 51.2057C39.1668 52.1481 38.2268 53.0905 37.2868 53.7188C37.9134 53.7188 37.9134 54.3471 38.2268 54.3471C40.1068 55.9178 42.6134 56.5461 44.4934 57.1744L43.8668 56.8603C43.2401 56.232 42.9268 55.6037 42.6134 54.9754C43.5534 54.6613 43.5534 54.3471 43.5534 54.033ZM35.0934 43.9803V44.6086C35.0934 45.2369 34.4668 44.6086 34.4668 44.9228V45.5511C34.1534 46.1794 35.0934 46.4935 35.0934 47.4359C35.4068 48.0642 35.0934 48.3784 35.7201 49.0067C35.7201 49.6349 35.7201 50.8915 36.3468 51.5198V52.1481C36.3468 52.7764 35.7201 52.7764 35.7201 52.7764C35.7201 52.7764 36.0334 52.7764 36.0334 53.0905C36.9734 51.834 37.9134 50.8915 39.4801 49.6349L38.8534 49.0067C38.2268 47.7501 37.2868 46.1794 36.9734 44.6086L36.6601 44.2945C36.6601 44.9228 36.3468 44.9228 36.3468 45.5511C36.0334 45.5511 35.7201 45.2369 35.7201 45.2369C35.7201 45.2369 35.4068 44.9228 35.7201 44.6086H36.0334V43.9803C36.0334 43.6662 35.7201 43.3521 36.0334 43.3521C36.3468 43.3521 36.6601 43.6662 36.6601 43.9803C36.9734 43.9803 37.2868 43.9803 37.2868 43.6662C37.2868 43.3521 37.6001 43.0379 37.2868 43.0379C37.6001 42.4096 37.2868 42.0955 37.2868 41.4672C36.9734 41.153 36.6601 41.4672 36.3468 41.4672C35.4068 41.7813 36.6601 42.4096 36.3468 43.3521C35.7201 44.2945 35.4068 43.6662 35.0934 43.9803ZM67.0534 43.9803C66.7401 48.3784 65.1734 51.834 62.9801 55.2896C62.3534 55.9178 62.3534 56.5461 61.4134 56.8603C62.3534 57.4886 63.2934 58.7451 64.2334 59.6876C67.9934 55.2896 70.1868 50.2632 70.1868 44.2945V43.9803H67.0534ZM33.2134 28.9014C36.9734 25.4458 41.0468 23.5609 46.0601 23.2468V19.4771C41.0468 19.7912 36.6601 21.3619 32.5868 24.1892C31.9601 24.8175 31.3334 25.4458 30.3934 26.0741C31.6468 26.7024 32.5868 27.6448 33.2134 28.9014ZM46.0601 29.5297C42.9268 29.8438 40.1068 31.1004 37.6001 32.9853C38.5401 33.6136 39.4801 34.8701 40.1068 35.4984C40.1068 35.4984 40.1068 35.1843 40.4201 35.1843C41.6734 34.556 42.9268 33.6136 44.1801 33.2994C44.8068 33.2994 45.4334 32.9853 46.0601 32.9853V29.5297ZM46.0601 34.2419C43.8668 34.556 42.3001 35.4984 40.7334 37.0692H41.0468C41.3601 37.3833 41.6734 37.3833 41.9868 37.6974C41.9868 38.0116 41.6734 38.0116 41.6734 38.3257H41.9868C42.3001 38.3257 42.3001 38.3257 42.3001 38.0116C42.6134 37.6974 42.6134 38.3257 42.9268 38.3257H43.5534C43.8668 38.0116 44.1801 38.3257 44.1801 38.0116C44.8068 37.3833 44.4934 37.0692 44.8068 36.755C45.1201 36.755 44.8068 37.0692 44.8068 37.3833C45.4334 37.6974 45.4334 37.0692 46.0601 37.3833V34.2419ZM46.3734 39.8965C45.7468 40.5247 45.4334 40.5247 44.8068 40.8389C44.4934 41.153 44.8068 41.4672 44.1801 41.4672C44.1801 41.7813 43.5534 42.0955 43.5534 42.0955C43.2401 42.7238 43.5534 43.0379 43.2401 43.6662C42.6134 44.2945 42.6134 43.0379 42.3001 43.0379H41.3601C41.0468 43.3521 40.7334 43.6662 41.0468 43.6662C41.0468 43.9803 40.4201 43.6662 40.4201 44.2945C41.0468 44.2945 41.0468 44.2945 41.6734 43.9803H42.3001C42.3001 43.9803 42.6134 43.9803 42.6134 44.2945C42.9268 44.2945 42.9268 43.6662 42.9268 43.6662C42.9268 43.3521 43.2401 43.3521 43.5534 43.3521C43.8668 43.3521 43.5534 43.6662 43.5534 43.6662C44.1801 43.9803 43.5534 44.2945 43.2401 44.6086C43.2401 44.9228 43.2401 45.2369 42.6134 45.2369V44.9228C42.6134 45.2369 42.6134 45.5511 42.9268 45.5511C43.2401 45.2369 43.2401 44.9228 43.5534 44.9228C43.8668 44.6086 43.5534 44.2945 43.8668 43.9803C44.4934 43.9803 45.1201 43.6662 45.7468 44.2945V44.9228C45.7468 45.2369 45.4334 45.5511 45.1201 45.5511V46.1794C44.8068 46.8076 44.1801 46.8076 43.5534 46.8076C44.1801 47.4359 45.4334 47.4359 46.3734 47.4359C47.0001 47.4359 46.6868 46.8076 47.0001 46.4935C47.3134 45.8652 47.9401 46.1794 48.5668 45.8652C48.8801 45.2369 49.1934 45.2369 49.1934 44.6086C48.5668 44.2945 48.5668 43.9803 48.5668 43.6662C48.2534 43.3521 48.2534 43.0379 47.9401 43.0379V42.7238C47.9401 42.4096 48.2534 42.4096 48.2534 42.0955C47.9401 41.7813 47.9401 41.4672 47.9401 41.4672C47.3134 41.4672 47.3134 40.8389 47.0001 40.8389C47.0001 40.5247 46.3734 40.5247 46.3734 40.2106C45.7468 40.5247 45.7468 39.5823 45.1201 39.5823V38.954C45.4334 38.6399 45.7468 38.954 45.7468 38.954H45.4334C45.1201 38.6399 44.8068 38.954 44.4934 38.954C46.3734 39.5823 46.0601 39.5823 46.3734 39.8965Z" fill="#1E91D6"/>
<path d="M26.9467 42.7236V42.0953C27.26 38.0114 28.5133 34.5558 30.7067 31.4144C31.3333 30.7861 31.6467 29.8436 32.5867 29.5295L30.08 27.0163C26.6333 31.1002 24.1267 35.8124 23.8133 40.8387C23.8133 41.467 23.8133 42.4094 23.5 43.0377C24.44 42.4094 26.0067 42.4094 26.9467 42.7236ZM61.1 57.8025C60.7867 58.4308 59.8467 59.0591 59.22 59.6874C58.5933 60.3157 57.34 60.6298 56.7133 61.8864C56.0867 62.5147 56.0867 62.8288 55.46 63.143C55.1467 63.7713 54.8333 63.7713 54.2067 64.0854C53.2667 65.0279 52.3267 63.4571 51.7 63.4571L49.82 63.7713C49.1933 63.7713 48.5667 64.0854 47.94 63.7713V67.541H48.2533C54.2067 67.2269 59.5333 65.0279 63.92 60.944L61.1 58.4308V57.8025ZM47.6267 22.9325C47.94 22.6183 47.94 22.6183 48.2533 22.9325V23.5608H48.5667C51.3867 23.8749 54.2067 24.5032 56.4 26.0739C57.0267 25.7598 57.6533 25.4456 57.9667 26.0739C58.5933 25.7598 58.5933 26.7022 59.22 26.7022C59.5333 26.7022 60.16 27.6446 60.16 28.2729C60.16 28.5871 60.7867 28.9012 60.7867 28.9012C61.4133 28.2729 62.04 27.3305 62.6667 26.7022L63.2933 26.3881C59.5333 22.9325 54.8333 20.7334 50.1333 20.1052C49.5067 20.1052 48.2533 20.1052 47.6267 19.791V22.9325Z" fill="#1E91D6"/>
<path d="M47.6267 28.2731C48.2534 27.9589 48.5667 28.2731 49.1934 28.2731C51.7 28.9014 53.8934 29.5297 56.0867 31.1004C55.7734 30.7862 55.46 30.4721 55.46 30.158C55.46 29.5297 54.8334 29.5297 54.8334 29.2155H55.1467C55.7734 29.8438 55.7734 29.8438 56.0867 30.4721C56.4 30.4721 56.7134 30.4721 56.7134 30.7862C56.7134 31.1004 56.7134 31.4145 57.34 31.7287C57.34 32.357 58.28 32.9853 58.28 33.6136C58.28 33.9277 58.5934 33.6136 58.5934 33.6136L59.22 34.556V35.1843C59.5334 35.1843 59.8467 34.8701 59.8467 34.8701C60.4734 35.1843 59.8467 35.4984 59.8467 35.8126H60.4734C60.4734 36.1267 60.16 36.4409 60.16 36.4409C60.16 36.755 60.4734 36.755 60.7867 36.755C61.1 36.755 61.1 37.0691 61.1 37.3833C61.7267 38.0116 60.7867 38.6399 61.1 39.2682C61.4134 39.8964 61.1 39.8964 60.7867 40.5247C60.7867 41.153 60.16 41.153 60.16 41.7813H59.5334C59.22 42.0955 59.8467 42.4096 59.5334 42.7237H60.7867C60.4734 42.0955 60.7867 41.4672 61.1 40.8389C61.4134 40.2106 61.4134 39.8964 61.7267 39.5823C61.7267 39.5823 62.04 39.2682 62.04 39.5823C62.04 40.2106 62.04 40.5247 61.7267 40.8389C62.3534 41.4672 62.04 42.0955 62.3534 42.7237H66.1134V42.4096C65.8 40.2106 65.4867 37.6974 64.5467 35.8126C64.2334 35.8126 63.92 36.1267 63.92 35.8126C63.92 35.8126 63.6067 35.8126 63.92 35.4984C63.2934 34.8701 63.2934 34.556 62.6667 33.9277C62.04 33.9277 61.7267 33.2994 61.1 33.2994C60.4734 33.2994 60.7867 32.357 60.16 32.6711C59.8467 32.6711 59.5334 32.0428 59.5334 32.0428C59.5334 31.4145 59.5334 30.7862 58.9067 30.158C58.28 29.8438 58.28 30.7862 57.9667 30.4721C57.6534 30.4721 57.9667 29.8438 57.6534 29.8438C57.6534 29.5297 57.34 29.5297 57.34 29.2155C57.9667 28.5872 56.7134 28.5872 56.7134 27.6448C56.7134 27.0165 56.0867 27.0165 55.7734 26.3882C53.8934 25.7599 52.0134 24.8175 49.82 24.5034C49.1934 24.5034 48.88 24.5034 48.2534 24.1892V24.5034C47.6267 26.0741 47.6267 27.0165 47.6267 28.2731Z" fill="#1E91D6"/>
<path d="M61.1001 29.5295C61.4134 29.5295 61.4134 30.1578 61.7268 30.1578C62.6668 30.7861 62.9801 31.7285 63.6068 32.0427C64.2334 32.9851 65.1734 33.9275 65.1734 34.87C66.1134 37.3831 67.0534 39.5821 67.0534 42.7236H70.8134C70.5001 42.4094 70.8134 42.0953 70.5001 41.467C69.8734 35.8124 67.6801 31.1002 63.9201 27.0164C63.2934 27.9588 62.3534 28.9012 61.1001 29.5295Z" fill="#1E91D6"/>
<path d="M47.9399 22.3043C47.9399 21.9902 48.5666 22.3043 48.5666 22.3043L50.4466 21.676C51.0733 21.676 52.0133 21.676 52.3266 22.3043C51.6999 22.9326 51.3866 22.9326 50.7599 22.9326C49.8199 22.9326 48.8799 23.2467 47.9399 22.3043ZM58.5933 24.5033C58.9066 24.5033 59.2199 24.8175 59.2199 25.1316C59.2199 25.4458 59.5333 25.7599 59.2199 25.7599C58.5933 26.0741 58.5933 25.1316 57.9666 25.1316V24.8175C58.2799 24.1892 58.2799 24.8175 58.5933 24.5033Z" fill="white"/>
</g>
<defs>
<clipPath id="clip0_1_213">
<rect width="94" height="191" fill="white"/>
</clipPath>
</defs>
</svg>
